<?xml version="1.0" encoding="utf-8"?>
<svg xmlns="http://www.w3.org/2000/svg" xmlns:xlink="http://www.w3.org/1999/xlink">

<symbol id="i-html" viewBox="-40 0 512 512.001" xmlns="http://www.w3.org/2000/svg"><path d="m73.003906 195.183594h-24.261718v29.425781c0 2.242187-2.535157 3.410156-5.164063 3.410156-2.535156 0-5.167969-1.167969-5.167969-3.410156v-64.507813c0-2.339843 2.632813-3.3125 5.167969-3.3125 2.628906 0 5.164063.972657 5.164063 3.3125v26.894532h24.261718v-26.894532c0-2.339843 2.632813-3.3125 5.167969-3.3125 2.628906 0 5.164063.972657 5.164063 3.3125v64.507813c0 2.242187-2.535157 3.410156-5.164063 3.410156-2.535156 0-5.167969-1.167969-5.167969-3.410156zm0 0"/><path d="m134.976562 156.789062c2.335938 0 3.410157 2.339844 3.410157 4.578126 0 2.535156-1.167969 4.875-3.410157 4.875h-15.007812v58.367187c0 2.242187-2.628906 3.410156-5.164062 3.410156-2.632813 0-5.164063-1.167969-5.164063-3.410156v-58.367187h-15.105469c-2.144531 0-3.410156-2.242188-3.410156-4.777344 0-2.242188 1.074219-4.675782 3.410156-4.675782zm0 0"/><path d="m176.871094 202.003906c-1.070313 1.753906-2.4375 2.335938-3.800782 2.335938-1.265624 0-2.628906-.582032-3.503906-2.335938l-13.058594-24.753906v47.359375c0 2.242187-2.535156 3.410156-5.167968 3.410156-2.53125 0-5.164063-1.167969-5.164063-3.410156v-62.65625c0-3.800781 2.535157-5.164063 5.164063-5.164063 3.703125 0 5.75 1.265626 8.1875 5.847657l13.640625 25.820312 13.839843-25.820312c2.433594-4.582031 4.382813-5.847657 8.085938-5.847657 2.730469 0 5.164062 1.363282 5.164062 5.164063v62.65625c0 2.242187-2.53125 3.410156-5.164062 3.410156-2.53125 0-5.164062-1.167969-5.164062-3.410156v-46.773437zm0 0"/><path d="m217.699219 228.019531c-2.242188 0-4.582031-1.167969-4.582031-3.410156v-64.507813c0-2.339843 2.632812-3.3125 5.167968-3.3125 2.628906 0 5.164063.972657 5.164063 3.3125v58.757813h25.335937c2.046875 0 3.117188 2.242187 3.117188 4.582031 0 2.242188-1.070313 4.578125-3.117188 4.578125zm0 0"/><path d="m430.527344 105.644531c-7.644532-7.070312-15.285156-14.140625-22.929688-21.210937-19.414062-17.960938-38.824218-35.917969-58.234375-53.878906-7.621093-7.046876-15.238281-14.09375-22.855469-21.140626-3.382812-3.128906-8.175781-9.320312-12.996093-9.41015575-.039063 0-.078125-.00390625-.117188-.00390625h-241.738281c-15.164062 0-27.503906 12.339844-27.503906 27.503906v94.8125h-17.722656c-14.574219 0-26.429688 11.855469-26.429688 26.429688v89.597656c0 14.570312 11.855469 26.425781 26.429688 26.425781h17.722656v56.035157c0 4.140624 3.359375 7.5 7.5 7.5 4.144531 0 7.503906-3.359376 7.503906-7.5v-56.035157h199.5625c14.570312 0 26.425781-11.855469 26.425781-26.425781v-89.597656c0-14.574219-11.855469-26.429688-26.425781-26.429688h-84.257812c-4.140626 0-7.5 3.359375-7.5 7.503906 0 4.140626 3.359374 7.5 7.5 7.5h84.257812c6.296875 0 11.421875 5.125 11.421875 11.425782v89.597656c0 6.296875-5.125 11.421875-11.421875 11.421875h-232.289062c-6.300782 0-11.425782-5.125-11.425782-11.421875v-89.597656c0-6.300782 5.125-11.425782 11.425782-11.425782h102.355468c4.144532 0 7.503906-3.359374 7.503906-7.5 0-4.144531-3.359374-7.503906-7.503906-7.503906h-69.628906v-94.8125c0-6.894531 5.605469-12.5 12.5-12.5h234.238281v76.425782c0 15.167968 12.335938 27.503906 27.503907 27.503906h84.53125v365.5625c0 6.894531-5.605469 12.503906-12.5 12.503906h-333.773438c-6.894531 0-12.5-5.609375-12.5-12.503906v-116.019532c0-4.140624-3.359375-7.5-7.503906-7.5-4.140625 0-7.5 3.359376-7.5 7.5v116.019532c0 15.167968 12.339844 27.503906 27.503906 27.503906h333.773438c15.164062 0 27.503906-12.335938 27.503906-27.503906v-373.347656c0-2.089844-.875-4.085938-2.40625-5.503907zm-97.128906-1.714843c-6.894532 0-12.503907-5.605469-12.503907-12.5v-66.738282l85.421875 79.238282zm0 0"/><path d="m197.222656 292.429688c-2.925781-2.929688-7.675781-2.929688-10.605468 0l-47.007813 47.007812c-2.929687 2.929688-2.929687 7.679688 0 10.609375l47.007813 47.007813c1.464843 1.464843 3.382812 2.195312 5.304687 2.195312 1.917969 0 3.839844-.730469 5.300781-2.195312 2.929688-2.929688 2.929688-7.679688 0-10.609376l-41.703125-41.703124 41.703125-41.707032c2.929688-2.925781 2.929688-7.675781 0-10.605468zm0 0"/><path d="m279.859375 397.054688c1.464844 1.464843 3.386719 2.195312 5.304687 2.195312 1.921876 0 3.839844-.730469 5.304688-2.195312l47.007812-47.007813c2.929688-2.929687 2.929688-7.679687 0-10.609375l-47.007812-47.007812c-2.929688-2.929688-7.679688-2.929688-10.609375 0-2.925781 2.929687-2.925781 7.679687 0 10.605468l41.707031 41.707032-41.707031 41.703124c-2.929687 2.929688-2.929687 7.679688 0 10.609376zm0 0"/><path d="m220.074219 399.253906c2.992187 0 5.824219-1.804687 6.984375-4.761718l36.933594-94.015626c1.515624-3.855468-.382813-8.210937-4.238282-9.726562-3.855468-1.515625-8.210937.382812-9.726562 4.238281l-36.933594 94.019531c-1.515625 3.855469.382812 8.207032 4.238281 9.722657.902344.355469 1.828125.523437 2.742188.523437zm0 0"/></symbol>

<symbol id="i-css" viewBox="-60 0 512 512.00002" xmlns="http://www.w3.org/2000/svg"><path d="m384.210938 431.613281c4.179687 0 7.570312-3.390625 7.570312-7.570312v-401.25c0-12.566407-10.222656-22.792969-22.789062-22.792969-105.628907 0-235.15625 0-347.160157 0-12.039062 0-21.832031 9.792969-21.832031 21.832031v225.730469c0 4.1875 3.390625 7.570312 7.570312 7.570312 4.179688 0 7.570313-3.382812 7.570313-7.570312v-51.808594h194.304687c4.183594 0 7.574219-3.390625 7.574219-7.570312 0-4.179688-3.390625-7.570313-7.574219-7.570313h-194.304687v-158.78125c0-3.695312 2.996094-6.691406 6.691406-6.691406h299.757813c3.695312 0 6.691406 2.996094 6.691406 6.691406v158.78125h-88.550781c-4.183594 0-7.570313 3.390625-7.570313 7.570313 0 4.179687 3.386719 7.570312 7.570313 7.570312h88.550781v126.359375h-313.140625v-44.269531c0-4.179688-3.390625-7.570312-7.570313-7.570312-4.179687 0-7.570312 3.390624-7.570312 7.570312v180.941406c0 12.042969 9.792969 21.84375 21.832031 21.84375h4.390625v8.578125c0 12.566407 10.226563 22.792969 22.804688 22.792969h319.964844c12.566406 0 22.789062-10.226562 22.789062-22.792969v-34.882812c0-4.179688-3.390625-7.570313-7.570312-7.570313-4.179688 0-7.570313 3.390625-7.570313 7.570313v34.882812c0 4.21875-3.429687 7.652344-7.648437 7.652344h-319.964844c-4.230469 0-7.664063-3.433594-7.664063-7.652344v-8.578125h172.03125c4.261719 0 6.355469-2.367187 9.253907-5.25 21.253906-20.546875 104.613281-101.160156 117.886718-114 1.835938-1.777344 2.886719-4.257812 2.886719-6.8125 0-12.210937 0-320.179687 0-332.734375 0-2.332031-.363281-4.582031-1.050781-6.691406h26.621094c4.21875 0 7.648437 3.433594 7.648437 7.652344v401.25c0 4.179687 3.390625 7.570312 7.570313 7.570312zm-162.480469 23.589844v-85.707031c0-3.613282 2.9375-6.550782 6.550781-6.550782h88.855469c-180.363281 174.421876 5.441406-5.261718-95.40625 92.257813zm106.550781-107.398437h-100c-11.960938 0-21.691406 9.730468-21.691406 21.691406v95.992187c-9.390625 0-176.195313 0-184.757813 0-3.695312 0-6.691406-3.007812-6.691406-6.703125v-121.53125h313.140625zm0 0"/><path d="m249.695312 153.941406c4.328126 0 8.523438-1.277344 12.128907-3.691406l47.148437-31.617188c13.03125-8.734374 12.851563-28.007812-.402344-36.472656 0 0 0 0-.003906 0l-47.148437-30.109375c-10.125-6.46875-23.632813-3.492187-30.101563 6.640625-6.46875 10.128906-3.492187 23.632813 6.640625 30.097656l19.078125 12.1875-19.488281 13.066407c-17.960937 12.039062-9.15625 39.902343 12.148437 39.898437zm-3.71875-27.324218 29.097657-19.511719c4.523437-3.035157 4.457031-9.730469-.144531-12.667969l-28.828126-18.410156c-3.09375-1.976563-4.003906-6.097656-2.03125-9.191406 1.972657-3.082032 6.089844-4.007813 9.195313-2.027344l47.152344 30.109375c4.035156 2.578125 4.109375 8.464843.121093 11.140625-49.125 32.476562-47.265624 32.742187-50.847656 32.742187-6.539062 0-9.1875-8.515625-3.714844-12.183593zm0 0"/><path d="m112.109375 58.6875c-6.464844-10.128906-19.964844-13.105469-30.101563-6.640625l-47.148437 30.113281c-13.246094 8.457032-13.445313 27.730469-.40625 36.472656l47.148437 31.617188c3.605469 2.414062 7.800782 3.691406 12.132813 3.691406 21.34375 0 30.078125-27.875 12.144531-39.898437l-19.488281-13.066407 19.082031-12.1875c10.128906-6.46875 13.105469-19.972656 6.636719-30.101562zm-14.785156 17.339844-28.832031 18.410156c-4.59375 2.9375-4.671876 9.632812-.140626 12.671875 28.699219 19.980469 30.988282 19.023437 31.917969 23.75 1.136719 5.765625-5.292969 10.125-10.234375 6.8125l-47.152344-31.613281c-3.996093-2.679688-3.910156-8.5625.125-11.136719 49.019532-30.855469 47.097657-31.15625 50.722657-31.15625 6.652343 0 9.171875 8.699219 3.59375 12.261719zm0 0"/><path d="m177.316406 57.371094-46.125 61.726562c-3.484375 4.664063-4.945312 10.40625-4.113281 16.167969 2.761719 19.074219 27.402344 25.492187 39.03125 9.925781l46.125-61.726562c3.484375-4.664063 4.945313-10.40625 4.113281-16.167969-2.796875-19.316406-27.535156-25.316406-39.03125-9.925781zm-23.335937 78.757812c-3.542969 4.742188-11.074219 2.800782-11.917969-3.03125-.746094-5.148437.671875-3.050781 47.378906-66.664062 3.523438-4.707032 11.070313-2.847656 11.917969 3.03125.746094 5.148437-.664063 3.046875-47.378906 66.664062zm0 0"/><path d="m109.480469 233.722656c9.421875 0 9.753906 7.09375 9.863281 9.976563.222656 3.992187 3.992188 5.210937 8.644531 5.210937 5.875 0 8.648438-1.554687 8.648438-8.203125 0-14.078125-11.972657-22.058593-27.824219-22.058593-14.519531 0-26.601562 7.09375-26.601562 26.160156v29.375c0 19.066406 12.082031 26.160156 26.601562 26.160156 15.851562 0 27.824219-8.425781 27.824219-23.167969 0-6.652343-2.773438-8.203125-8.757813-8.203125-4.433594 0-8.203125 1.109375-8.535156 5.210938-.332031 4.324218-.886719 11.085937-9.753906 11.085937-6.429688 0-10.089844-3.546875-10.089844-11.085937v-29.375c.003906-7.539063 3.660156-11.085938 9.980469-11.085938zm0 0"/><path d="m170.21875 285.265625c-10.308594 0-13.636719-8.199219-18.84375-8.199219-4.210938 0-7.539062 5.539063-7.539062 9.308594 0 7.316406 12.195312 14.410156 26.714843 14.410156 16.070313 0 27.710938-8.644531 27.710938-24.605468 0-27.933594-35.136719-25.828126-35.136719-36.914063 0-3.433594 3.214844-6.648437 11.082031-6.648437 9.089844 0 11.195313 4.210937 15.1875 4.210937 4.878907 0 6.875-6.097656 6.875-9.089844 0-8.644531-16.183593-9.753906-22.0625-9.753906-13.855469 0-28.375 6.316406-28.375 22.945313 0 25.9375 35.136719 23.609374 35.136719 37.023437.003906 5.320313-5.652344 7.3125-10.75 7.3125zm0 0"/><path d="m231.621094 285.265625c-10.308594 0-13.632813-8.199219-18.84375-8.199219-4.210938 0-7.539063 5.539063-7.539063 9.308594 0 7.316406 12.195313 14.410156 26.71875 14.410156 16.070313 0 27.710938-8.644531 27.710938-24.605468 0-27.933594-35.140625-25.828126-35.140625-36.914063 0-3.433594 3.214844-6.648437 11.085937-6.648437 9.089844 0 11.195313 4.210937 15.183594 4.210937 4.878906 0 6.875-6.097656 6.875-9.089844 0-8.644531-16.183594-9.753906-22.058594-9.753906-13.859375 0-28.378906 6.316406-28.378906 22.945313 0 25.9375 35.140625 23.609374 35.140625 37.023437 0 5.320313-5.652344 7.3125-10.753906 7.3125zm0 0"/></symbol>

<symbol id="i-pug" enable-background="new 0 0 512 512" viewBox="0 0 512 512" xmlns="http://www.w3.org/2000/svg"><g><path d="m430.918 60.54c-15.424-15.466-37.933-20.971-58.756-14.36l-42.206 13.398c-73.648-18.713-131.234-5.143-148.31-.126l-41.808-13.272c-20.817-6.61-43.333-1.106-58.756 14.36l-81.082 81.309s17.351 56.89 64.572 92.789l-14.492 62.752-.148.722c-4.167 23.164 1.591 47.21 15.797 65.975 12.163 16.065 29.735 27.214 49.239 31.518l8.938 21.824c9.726 23.75 32.593 39.095 58.258 39.095 8.09 0 15.9-1.551 23.112-4.396 15.461 10.648 33.862 16.443 52.81 16.443 18.732 0 36.973-5.681 52.337-16.119 6.98 2.64 14.503 4.072 22.284 4.072 25.664 0 48.532-15.346 58.257-39.095l9.006-21.989c19.202-4.422 36.478-15.495 48.483-31.353 14.207-18.764 19.965-42.811 15.798-65.976l-12.026-66.841c42.703-33.852 59.775-89.421 59.775-89.421zm-279.144 345.476-11.244-27.454 62.542-80.774 35.917 29.929-25.704 76.334c-4.503 13.374-17.01 22.359-31.122 22.359-13.387 0-25.316-8.005-30.389-20.394zm94.839-135.202h21.643c7.759 0 15.353 2.016 22.068 5.666l-32.89 27.406-32.89-27.406c6.715-3.65 14.309-5.666 22.069-5.666zm-15.049 161.782c4.396-5.567 7.904-11.934 10.261-18.934l15.609-46.355 15.609 46.355c2.418 7.18 6.04 13.699 10.595 19.366-7.988 3.542-16.688 5.429-25.555 5.429-9.233-.001-18.274-2.037-26.519-5.861zm131.531-26.579c-5.074 12.388-17.002 20.393-30.389 20.393-14.111 0-26.618-8.985-31.121-22.359l-25.705-76.334 35.917-29.929 62.542 80.774zm70.806-198.572-38.309-42.01c-11.965-13.121-18.554-30.127-18.554-47.885h-30.115c0 25.282 9.382 49.494 26.416 68.176l49.947 54.772 11.325 62.946c2.721 15.129-.89 30.21-10.169 42.466-6.184 8.168-14.265 14.239-23.493 17.829l-72.357-93.449c-7.557-9.76-17.393-17.446-28.435-22.537v-49.558c0-3.142 2.029-4.613 3.239-5.209 1.211-.597 3.612-1.312 6.105.6l26.28 20.156 18.328-23.896-26.28-20.156c-10.933-8.385-25.399-9.807-37.755-3.712s-20.031 18.44-20.031 32.217v42.53c-.595-.014-1.19-.026-1.786-.026h-21.643c-.162 0-.324.006-.487.007v-42.511c0-13.777-7.676-26.122-20.031-32.217-12.356-6.094-26.823-4.673-37.755 3.712l-26.28 20.156 18.328 23.896 26.28-20.156c2.493-1.914 4.895-1.197 6.105-.6s3.239 2.067 3.239 5.209v48.978c-11.568 5.078-21.883 12.976-29.734 23.117l-72.519 93.658c-9.448-3.562-17.718-9.715-24.019-18.039-9.209-12.163-12.835-27.109-10.228-42.123l16.451-71.234 42.7-46.826c17.036-18.682 26.418-42.893 26.418-68.176h-30.115c0 17.758-6.59 34.763-18.555 47.885l-38.308 42.01c-32.346-27.862-37.798-52.53-41.531-59.619l65.837-66.022c7.434-7.454 18.286-10.106 28.319-6.921l51.205 16.23s65.542-22.578 144.518-1.325l4.261 1.147 50.565-16.052c10.037-3.187 20.885-.533 28.319 6.921l65.837 66.022c-3.737 7.089-11.552 31.096-41.533 59.619z"/><path d="m145.018 230.826h30.115v30.117h-30.115z"/><path d="m341.036 230.826h30.115v30.117h-30.115z"/></g>
</symbol>

<symbol id="i-sass" xmlns="http://www.w3.org/2000/svg" xmlns:xlink="http://www.w3.org/1999/xlink" x="0px" y="0px"
	 viewBox="0 0 512.007 512.007" style="enable-background:new 0 0 512.007 512.007;" xml:space="preserve">
<g transform="translate(0 -1)">
	<g>
		<g>
			<path d="M503.47,188.741h-93.867v-76.8c0-0.089-0.011-0.176-0.013-0.265c-0.004-0.111-0.009-0.222-0.017-0.333
				c-0.024-0.343-0.063-0.682-0.126-1.012c-0.004-0.022-0.006-0.044-0.01-0.066c-0.075-0.376-0.18-0.739-0.302-1.095
				c-0.022-0.065-0.047-0.128-0.07-0.192c-0.129-0.349-0.275-0.689-0.447-1.014c-0.005-0.009-0.008-0.018-0.013-0.027
				c-0.182-0.342-0.391-0.667-0.617-0.979c-0.039-0.054-0.08-0.108-0.121-0.161c-0.246-0.324-0.508-0.634-0.796-0.92L304.703,3.508
				c-0.263-0.263-0.548-0.501-0.843-0.728c-0.083-0.064-0.167-0.128-0.252-0.189c-0.285-0.203-0.58-0.395-0.89-0.562
				c-0.076-0.041-0.155-0.073-0.232-0.112c-0.247-0.124-0.501-0.236-0.761-0.336c-0.12-0.046-0.24-0.092-0.362-0.132
				c-0.294-0.098-0.593-0.183-0.899-0.249c-0.14-0.03-0.281-0.049-0.422-0.073c-0.228-0.037-0.458-0.068-0.692-0.086
				c-0.165-0.013-0.33-0.021-0.496-0.025c-0.062-0.001-0.122-0.009-0.184-0.009H8.537c-4.71,0-8.533,3.823-8.533,8.533v494.933
				c0,4.71,3.823,8.533,8.533,8.533H401.07c4.719,0,8.533-3.823,8.533-8.533v-93.867h93.867c4.719,0,8.533-3.823,8.533-8.533v-204.8
				C512.004,192.564,508.189,188.741,503.47,188.741z M307.204,30.14l73.267,73.267h-73.267V30.14z M392.537,495.941H17.07V18.074
				h273.067v93.867c0,4.71,3.823,8.533,8.533,8.533h93.867v68.267H51.204c-4.71,0-8.533,3.823-8.533,8.533v204.8
				c0,4.71,3.823,8.533,8.533,8.533h341.333V495.941z M494.937,393.541h-435.2V205.807h435.2V393.541z"/>
			<path d="M119.47,239.941c14.114,0,25.6,11.486,25.6,25.6c0,4.71,3.823,8.533,8.533,8.533c4.71,0,8.533-3.823,8.533-8.533
				c0-23.526-19.14-42.667-42.667-42.667s-42.667,19.14-42.667,42.667c0,23.526,19.14,42.667,42.667,42.667
				c14.114,0,25.6,11.486,25.6,25.6c0,14.114-11.486,25.6-25.6,25.6s-25.6-11.486-25.6-25.6c0-4.71-3.823-8.533-8.533-8.533
				c-4.71,0-8.533,3.823-8.533,8.533c0,23.526,19.14,42.667,42.667,42.667s42.667-19.14,42.667-42.667
				c0-23.526-19.14-42.667-42.667-42.667c-14.114,0-25.6-11.486-25.6-25.6C93.87,251.426,105.356,239.941,119.47,239.941z"/>
			<path d="M332.804,239.941c14.114,0,25.6,11.486,25.6,25.6c0,4.71,3.823,8.533,8.533,8.533s8.533-3.823,8.533-8.533
				c0-23.526-19.14-42.667-42.667-42.667c-23.526,0-42.667,19.14-42.667,42.667c0,23.526,19.14,42.667,42.667,42.667
				c14.114,0,25.6,11.486,25.6,25.6c0,14.114-11.486,25.6-25.6,25.6c-14.114,0-25.6-11.486-25.6-25.6
				c0-4.71-3.823-8.533-8.533-8.533s-8.533,3.823-8.533,8.533c0,23.526,19.14,42.667,42.667,42.667
				c23.526,0,42.667-19.14,42.667-42.667c0-23.526-19.14-42.667-42.667-42.667c-14.114,0-25.6-11.486-25.6-25.6
				C307.204,251.426,318.69,239.941,332.804,239.941z"/>
			<path d="M435.204,308.207c14.114,0,25.6,11.486,25.6,25.6c0,14.114-11.486,25.6-25.6,25.6s-25.6-11.486-25.6-25.6
				c0-4.71-3.814-8.533-8.533-8.533c-4.71,0-8.533,3.823-8.533,8.533c0,23.526,19.14,42.667,42.667,42.667
				c23.526,0,42.667-19.14,42.667-42.667c0-23.526-19.14-42.667-42.667-42.667c-14.114,0-25.6-11.486-25.6-25.6
				c0-14.114,11.486-25.6,25.6-25.6s25.6,11.486,25.6,25.6c0,4.71,3.814,8.533,8.533,8.533s8.533-3.823,8.533-8.533
				c0-23.526-19.14-42.667-42.667-42.667c-23.526,0-42.667,19.14-42.667,42.667C392.537,289.067,411.677,308.207,435.204,308.207z"
				/>
			<path d="M229.866,228.408c-1.289-3.405-4.582-5.692-8.235-5.53c-3.644,0.102-6.818,2.5-7.91,5.982l-42.667,136.533
				c-1.399,4.506,1.109,9.284,5.606,10.692c4.454,1.374,9.276-1.101,10.692-5.598l14.127-45.214h46.472l17.122,45.666
				c1.289,3.422,4.54,5.538,7.996,5.538c0.998,0,2.005-0.179,2.995-0.546c4.412-1.655,6.647-6.571,5.001-10.991L229.866,228.408z
				 M206.813,308.207l15.791-50.539l18.949,50.539H206.813z"/>
		</g>
	</g>
</g>
<g>
</g>
<g>
</g>
<g>
</g>
<g>
</g>
<g>
</g>
<g>
</g>
<g>
</g>
<g>
</g>
<g>
</g>
<g>
</g>
<g>
</g>
<g>
</g>
<g>
</g>
<g>
</g>
<g>
</g>
</symbol>

<symbol id="i-gulp" xmlns="http://www.w3.org/2000/svg" viewBox="0 0 32 32"><path d="M 22.154297 1 C 22.113531 1.0015781 22.081797 1.0129531 22.060547 1.0332031 L 18.345703 5.4453125 L 17.587891 8.0507812 C 17.072891 8.0337813 16.541094 8.0273438 15.996094 8.0273438 C 12.135094 8.0273437 9 8.4363594 9 8.9433594 C 9 10.153359 22.990234 10.153359 22.990234 8.9433594 C 22.990234 8.5683594 21.315391 8.2515625 18.900391 8.1015625 L 19.5 5.9570312 L 22.974609 1.7773438 L 22.980469 1.7714844 C 23.058469 1.6904844 22.906203 1.447375 22.658203 1.234375 C 22.472203 1.073875 22.276594 0.99526563 22.154297 1 z M 17.302734 9.0761719 L 17.289062 9.1171875 C 17.283062 9.1221875 17.283203 9.1287656 17.283203 9.1347656 C 17.283203 9.2097656 17.586078 9.2714844 17.955078 9.2714844 C 18.324078 9.2714844 18.628906 9.2097656 18.628906 9.1347656 L 18.640625 9.0878906 C 18.737625 9.1228906 18.791016 9.1629844 18.791016 9.2089844 C 18.791016 9.3299844 18.416219 9.4288281 17.949219 9.4238281 C 17.495219 9.4238281 17.119141 9.3319375 17.119141 9.2109375 C 17.119141 9.1589375 17.193734 9.1111719 17.302734 9.0761719 z M 22.912109 9.4199219 C 21.061109 10.406922 10.949797 10.413594 9.0917969 9.4335938 L 9.9140625 16.666016 C 10.271062 15.513016 11.173938 13.956375 12.335938 13.484375 C 12.716938 13.328375 13.103797 13.329109 13.466797 13.537109 C 13.781797 13.710109 14.048125 14.072797 14.078125 14.216797 C 14.151125 14.591797 13.957641 14.740234 13.806641 14.740234 C 13.624641 14.740234 13.485531 14.476312 13.394531 14.320312 C 13.146531 13.899313 12.771094 13.881203 12.371094 14.158203 C 11.953094 14.446203 11.589938 14.930563 11.335938 15.351562 C 11.026938 15.858562 10.766375 16.417563 10.609375 16.976562 C 10.518375 17.299563 10.435219 17.817047 10.574219 18.123047 C 10.635219 18.250047 10.725094 18.330078 10.871094 18.330078 C 11.174094 18.330078 11.614172 17.950047 11.826172 17.748047 C 12.098172 17.489047 12.449031 17.085172 12.582031 16.826172 L 12.898438 15.933594 C 13.055438 15.541594 13.496094 15.610594 13.496094 15.933594 C 13.496094 16.521594 13.273578 16.717594 12.892578 17.933594 C 12.541578 19.057594 12.431641 19.421875 12.431641 19.421875 C 12.389641 19.582875 12.225781 19.853516 12.050781 19.853516 C 11.977781 19.853516 11.924531 19.829203 11.894531 19.783203 C 11.833531 19.702203 11.839703 19.479875 11.845703 19.421875 C 11.857703 19.237875 12.226109 18.14175 12.287109 17.96875 C 12.166109 18.09575 12.039391 18.223609 11.900391 18.349609 C 11.573391 18.643609 11.047609 19.029297 10.599609 19.029297 C 10.393609 19.029297 10.261766 18.976625 10.134766 18.890625 L 10.59375 23.478516 C 10.71475 23.766516 12.966641 24.464844 15.931641 24.464844 C 18.902641 24.464844 21.152578 23.761516 21.267578 23.478516 L 21.927734 18.027344 C 21.582734 18.327344 21.184188 18.696859 20.742188 18.880859 C 20.415187 19.013859 19.689453 19.098781 19.689453 18.550781 C 19.689453 18.250781 20.240547 17.6985 20.560547 17.3125 C 20.645547 17.2145 20.84375 16.972703 20.84375 16.845703 C 20.84375 16.678703 20.481719 16.717281 20.136719 16.988281 C 19.942719 17.144281 19.760375 17.352828 19.609375 17.548828 C 19.349375 17.894828 19.210703 18.193406 19.095703 18.441406 C 18.720703 19.259406 18.847922 18.936984 18.544922 19.708984 C 18.241922 20.475984 18.291469 20.388625 18.230469 20.515625 C 18.176469 20.625625 18.097281 20.718391 17.988281 20.775391 C 17.873281 20.833391 17.716141 20.826812 17.619141 20.757812 C 17.565141 20.722812 17.539062 20.647922 17.539062 20.544922 C 17.539062 20.492922 17.546594 20.440672 17.558594 20.388672 C 17.649594 20.036672 18.030797 19.346109 18.466797 18.412109 C 18.563797 18.199109 18.526672 18.262297 18.513672 18.279297 C 18.138672 18.625297 17.853578 18.792766 17.642578 18.884766 C 17.291578 19.034766 16.855625 19.034438 16.765625 18.648438 C 16.759625 18.625438 16.759906 18.601125 16.753906 18.578125 C 16.039906 19.108125 15.283922 19.252328 15.544922 18.111328 C 15.266922 18.584328 14.7815 18.970703 14.1875 18.970703 C 13.9395 18.970703 13.757969 18.890734 13.667969 18.677734 C 13.528969 18.360734 13.746312 17.817688 13.945312 17.304688 C 14.048312 17.045687 14.188953 16.734094 14.376953 16.371094 C 14.473953 16.175094 14.629937 16.059328 14.835938 16.111328 C 14.871937 16.123328 14.903594 16.135344 14.933594 16.152344 C 15.090594 16.256344 15.030172 16.410406 14.951172 16.566406 C 14.721172 16.998406 14.521672 17.315625 14.388672 17.765625 C 14.334672 17.955625 14.266516 18.285156 14.478516 18.285156 C 14.623516 18.285156 14.762484 18.238484 14.896484 18.146484 C 15.174484 17.950484 15.398359 17.657141 15.568359 17.369141 C 15.689359 17.162141 15.835203 16.891156 15.908203 16.660156 C 15.938203 16.562156 15.975578 16.469813 16.017578 16.382812 C 16.084578 16.238813 16.174031 16.089844 16.332031 16.089844 C 16.411031 16.089844 16.476391 16.118781 16.525391 16.175781 C 16.628391 16.302781 16.605781 16.433266 16.550781 16.572266 C 16.429781 16.895266 16.266813 17.184156 16.132812 17.535156 C 16.053812 17.737156 15.96875 17.995984 15.96875 18.208984 C 15.96875 18.404984 16.192859 18.358344 16.380859 18.277344 C 16.525859 18.214344 16.670969 18.117531 16.792969 18.019531 C 16.865969 17.737531 16.846625 17.799891 18.390625 14.087891 C 18.469625 13.897891 18.614766 13.816406 18.759766 13.816406 C 18.832766 13.816406 18.892125 13.840859 18.953125 13.880859 C 19.056125 13.955859 19.057625 14.115328 19.015625 14.236328 C 18.973625 14.346328 18.978187 14.311797 18.742188 14.841797 C 18.427187 15.538797 18.222359 16.041641 17.943359 16.681641 C 17.828359 16.946641 17.477969 17.770797 17.417969 17.966797 C 17.381969 18.093797 17.338516 18.300781 17.478516 18.300781 C 17.805516 18.300781 18.646953 17.545312 18.876953 17.320312 C 18.888953 17.303313 18.907641 17.297156 18.931641 17.285156 C 18.967641 17.175156 19.003203 17.07275 19.033203 16.96875 C 19.118203 16.74975 19.197469 16.494406 19.355469 16.316406 C 19.403469 16.258406 19.457578 16.224609 19.517578 16.224609 C 19.686578 16.224609 19.771484 16.293078 19.771484 16.455078 C 19.771484 16.518078 19.730078 16.7495 19.705078 16.8125 C 19.790078 16.7265 19.879563 16.640688 19.976562 16.554688 C 20.884563 15.753687 21.53125 16.162406 21.53125 16.566406 C 21.53125 16.992406 20.993266 17.585062 20.697266 17.914062 C 20.600266 18.024062 20.400531 18.225203 20.394531 18.283203 C 20.394531 18.358203 20.448344 18.388672 20.527344 18.388672 C 20.648344 18.388672 20.914719 18.186188 21.011719 18.117188 C 21.314719 17.892187 21.724625 17.546688 22.015625 17.304688 L 22.912109 9.4199219 z M 10.929688 24.03125 L 11.832031 25.496094 L 12.183594 30.072266 C 12.183594 30.585266 13.895953 31 16.001953 31 C 18.107953 31 19.820312 30.585266 19.820312 30.072266 L 20.099609 25.449219 L 20.951172 24.03125 C 18.554172 24.99425 13.423687 25.02825 10.929688 24.03125 z"/>
</symbol>

<symbol id="i-git" viewBox="0 0 512 512" xmlns="http://www.w3.org/2000/svg"><path d="m386 53c0 5.523438-4.476562 10-10 10s-10-4.476562-10-10 4.476562-10 10-10 10 4.476562 10 10zm0 0"/><path d="m256 106c-93.738281 0-170 76.261719-170 170 0 94.644531 76.878906 170 170 170 93.324219 0 170-75.488281 170-170 0-93.738281-76.261719-170-170-170zm-30.792969 316.820312c.507813-2.207031.78125-4.492187.792969-6.820312v-39.835938c-.023438-14.582031 5.058594-16.84375 10.875-25.726562 1.867188-2.851562 2.152344-6.457031.761719-9.570312-1.394531-3.109376-4.277344-5.296876-7.648438-5.796876-39.667969-5.921874-55.238281-26.371093-61.316406-42.480468-8.09375-21.460938-3.808594-48.222656 10.417969-65.09375 2.164062-2.542969 4.101562-7.113282 2.546875-11.6875-3.035157-9.167969-2.5625-23.8125-.671875-29.476563 8.617187 1.261719 16.667968 6.144531 25.839844 11.710938 5.308593 3.226562 9.082031 6.203125 15.503906 4.476562 11.222656-3.042969 22.558594-4.660156 33.691406-4.808593 11.136719.144531 22.472656 1.765624 33.710938 4.8125 6.382812 1.722656 10.28125-1.320313 15.484374-4.480469 9.175782-5.566407 17.226563-10.453125 25.84375-11.710938 1.890626 5.660157 2.363282 20.300781-.644531 29.394531-1.582031 4.652344.351563 9.226563 2.515625 11.769532 14.230469 16.867187 18.515625 43.632812 10.417969 65.09375-6.074219 16.109375-21.644531 36.558594-61.3125 42.476562-3.371094.503906-6.253906 2.691406-7.648437 5.800782-1.394532 3.113281-1.109376 6.71875.757812 9.570312 5.804688 8.863281 10.902344 11.125 10.878906 25.742188v39.875c.011719 2.304687.28125 4.574218.785156 6.765624-10.074218 2.101563-20.382812 3.179688-30.789062 3.179688s-20.71875-1.078125-30.792969-3.179688zm80.902344-5.402343c-.0625-.464844-.105469-.933594-.109375-1.417969v-39.804688c.019531-11.476562-2.503906-18.941406-5.628906-24.539062 30.347656-8.203125 51.976562-26.308594 61.667968-52.007812 10.238282-27.144532 5.59375-59.59375-11.449218-82.058594 3.105468-13.667969 3.015625-35.253906-4.425782-45.070313-3.328124-4.394531-7.976562-6.671875-13.117187-6.449219-15.636719.722657-27.6875 8.527344-40.8125 16.441407-12.011719-3.039063-24.144531-4.652344-36.113281-4.800781-.082032-.003907-.160156-.003907-.242188 0-11.972656.144531-24.113281 1.761718-36.113281 4.800781-13.023437-7.851563-25.109375-15.714844-40.816406-16.441407-5.117188-.234374-9.78125 2.054688-13.113281 6.449219-7.429688 9.800781-7.53125 31.335938-4.421876 45.0625-17.042968 22.464844-21.691406 54.921875-11.453124 82.066407 9.691406 25.699218 31.320312 43.804687 61.667968 52.003906-2.46875 4.421875-4.554687 10.015625-5.316406 17.816406-12.367188 4.324219-22.378906 1.472656-29.175781-9.980469-7.949219-13.371093-21.417969-24.15625-36.855469-22.824219-5.503906.476563-9.578125 5.324219-9.101562 10.824219.472656 5.503907 5.335937 9.585938 10.824218 9.105469 7.148438-.621094 14.199219 6.824219 17.9375 13.109375 10.6875 18.011719 28 24.441406 46.058594 20.578125v25.660156c-.003906.503906-.046875.992188-.113281 1.472656-59.199219-21.003906-99.886719-78.019531-99.886719-141.414062 0-82.710938 67.289062-150 150-150s150 67.289062 150 150c0 63.394531-40.6875 120.410156-99.890625 141.417969zm0 0"/><path d="m462 0h-412c-27.570312 0-50 22.429688-50 50v412c0 27.570312 22.429688 50 50 50h412c27.570312 0 50-22.429688 50-50v-412c0-27.570312-22.429688-50-50-50zm30 462c0 16.542969-13.457031 30-30 30h-412c-16.542969 0-30-13.457031-30-30v-412c0-16.542969 13.457031-30 30-30h412c16.542969 0 30 13.457031 30 30zm0 0"/><path d="m136 63h200c5.523438 0 10-4.476562 10-10s-4.476562-10-10-10h-200c-5.523438 0-10 4.476562-10 10s4.476562 10 10 10zm0 0"/>
</symbol>

<symbol id="i-react" xmlns="http://www.w3.org/2000/svg"  viewBox="0 0 50 50"><path d="M 34.554688 3.984375 C 33.775003 3.9581582 32.958884 4.0940926 32.140625 4.359375 C 30.504109 4.889941 28.789203 5.9238848 27.029297 7.3554688 C 26.339589 7.9165071 25.643623 8.5578288 24.945312 9.2382812 C 24.262398 8.5751039 23.580733 7.9490442 22.90625 7.4003906 C 21.147758 5.9699557 19.4375 4.9375672 17.804688 4.4082031 C 16.171878 3.8788386 14.547223 3.8624356 13.212891 4.6328125 C 11.878558 5.4031893 11.080619 6.8173558 10.722656 8.4960938 C 10.364693 10.174832 10.402173 12.173992 10.761719 14.412109 C 10.886606 15.189511 11.066671 16.005078 11.269531 16.835938 C 10.507095 17.067004 9.7666767 17.309955 9.0800781 17.578125 C 7.0079817 18.387438 5.2934468 19.355663 4.0449219 20.507812 C 2.7963969 21.659962 1.9902344 23.058304 1.9902344 24.59375 C 1.9902344 26.129196 2.7963969 27.525585 4.0449219 28.677734 C 5.2934468 29.829884 7.0079817 30.800062 9.0800781 31.609375 C 9.8142516 31.896126 10.609118 32.154326 11.429688 32.398438 C 11.134531 33.501278 10.895394 34.571467 10.732422 35.585938 C 10.372587 37.825853 10.334588 39.825265 10.693359 41.507812 C 11.052134 43.19036 11.850478 44.612534 13.191406 45.386719 C 14.532336 46.160905 16.164264 46.141894 17.800781 45.611328 C 19.437297 45.080762 21.15025 44.048772 22.910156 42.617188 C 23.593512 42.061316 24.284757 41.427206 24.976562 40.753906 C 25.671663 41.430886 26.366333 42.068604 27.052734 42.626953 C 28.811227 44.057387 30.523438 45.089776 32.15625 45.619141 C 33.789061 46.148505 35.411762 46.164908 36.746094 45.394531 C 38.080426 44.624154 38.878366 43.209988 39.236328 41.53125 C 39.59429 39.852512 39.554857 37.85335 39.195312 35.615234 C 39.031899 34.598012 38.792614 33.526227 38.496094 32.419922 C 39.343769 32.169866 40.163744 31.904721 40.919922 31.609375 C 42.992018 30.800062 44.706553 29.829884 45.955078 28.677734 C 47.203603 27.525585 48.009766 26.129196 48.009766 24.59375 C 48.009766 23.058304 47.203603 21.659963 45.955078 20.507812 C 44.706553 19.355663 42.992018 18.387438 40.919922 17.578125 C 40.22347 17.306107 39.471688 17.059992 38.697266 16.826172 C 38.901775 15.990221 39.083345 15.168805 39.208984 14.386719 C 39.568819 12.146804 39.606825 10.145439 39.248047 8.4628906 C 38.889279 6.7803434 38.088976 5.3601244 36.748047 4.5859375 C 36.077582 4.1988452 35.334372 4.0105918 34.554688 3.984375 z M 34.462891 6.0195312 C 34.952154 6.03291 35.369535 6.1493386 35.726562 6.3554688 C 36.440618 6.7677287 36.968419 7.5700924 37.25 8.890625 C 37.531581 10.211156 37.521848 11.99533 37.189453 14.064453 C 37.075647 14.772878 36.910402 15.52369 36.722656 16.292969 C 34.677708 15.800829 32.436969 15.435424 30.048828 15.220703 C 28.849094 13.558465 27.615953 12.046374 26.373047 10.703125 C 27.030182 10.061662 27.683063 9.4617259 28.320312 8.9433594 C 29.946026 7.6209332 31.485126 6.7210962 32.769531 6.3046875 C 33.411734 6.0964824 33.973627 6.0061525 34.462891 6.0195312 z M 15.486328 6.0253906 C 15.978419 6.0116533 16.541491 6.1017415 17.185547 6.3105469 C 18.473657 6.7281576 20.015451 7.6275969 21.642578 8.9511719 C 22.266889 9.4590141 22.905452 10.045872 23.548828 10.671875 C 22.296955 12.025781 21.055175 13.553705 19.847656 15.230469 C 17.468002 15.449155 15.235261 15.818024 13.199219 16.3125 C 13.012686 15.546898 12.84964 14.799095 12.736328 14.09375 C 12.403642 12.02283 12.39534 10.236451 12.677734 8.9121094 C 12.960128 7.5877677 13.492238 6.7813032 14.212891 6.3652344 C 14.573216 6.1572002 14.994237 6.0391279 15.486328 6.0253906 z M 24.976562 12.142578 C 25.791064 13.028975 26.606064 13.9993 27.414062 15.042969 C 26.620033 15.009861 25.816288 14.990234 25 14.990234 C 24.167457 14.990234 23.34841 15.010498 22.539062 15.044922 C 23.347352 14.000306 24.16175 13.029737 24.976562 12.142578 z M 25 17.009766 C 26.359894 17.009766 27.685348 17.065647 28.974609 17.160156 C 29.86173 18.434311 30.728648 19.786055 31.554688 21.216797 C 32.280504 22.473948 32.937328 23.729163 33.535156 24.96875 C 32.931017 26.224782 32.263184 27.496972 31.527344 28.771484 C 30.879609 29.893393 30.20319 30.958949 29.515625 31.986328 C 28.059313 32.10805 26.550303 32.175781 25 32.175781 C 23.412375 32.175781 21.869462 32.104031 20.380859 31.976562 C 19.704742 30.963955 19.039735 29.912587 18.402344 28.808594 C 17.668186 27.536996 17.003577 26.269079 16.400391 25.015625 C 17.006106 23.755092 17.673701 22.47818 18.412109 21.199219 C 19.233818 19.775977 20.098207 18.432055 20.980469 17.164062 C 22.283609 17.067424 23.62445 17.009766 25 17.009766 z M 31.550781 17.410156 C 33.198531 17.615819 34.745652 17.90154 36.185547 18.244141 C 35.758129 19.645287 35.231654 21.108808 34.59375 22.619141 C 34.179567 21.820719 33.750599 21.019585 33.287109 20.216797 C 32.725727 19.244455 32.142026 18.315962 31.550781 17.410156 z M 18.34375 17.425781 C 17.764654 18.315097 17.194836 19.224578 16.644531 20.177734 C 16.175094 20.990823 15.737221 21.802736 15.318359 22.611328 C 14.68596 21.110075 14.162654 19.654877 13.738281 18.261719 C 15.168002 17.918363 16.706766 17.633813 18.34375 17.425781 z M 38.164062 18.775391 C 38.872944 18.989877 39.557566 19.21371 40.185547 19.458984 C 42.0957 20.205046 43.60665 21.088493 44.585938 21.992188 C 45.565224 22.895882 45.990234 23.757696 45.990234 24.59375 C 45.990234 25.429804 45.565225 26.291619 44.585938 27.195312 C 43.60665 28.099007 42.0957 28.982454 40.185547 29.728516 C 39.487698 30.001079 38.72096 30.248243 37.923828 30.482422 C 37.355199 28.723643 36.629408 26.888772 35.765625 25.015625 C 36.758785 22.865083 37.561088 20.768289 38.164062 18.775391 z M 11.802734 18.785156 C 12.398795 20.758095 13.190852 22.834207 14.169922 24.962891 C 13.30047 26.846955 12.571087 28.692254 12 30.460938 C 11.23096 30.232919 10.490212 29.992451 9.8144531 29.728516 C 7.9042995 28.982454 6.39335 28.099007 5.4140625 27.195312 C 4.434775 26.291618 4.0097656 25.429804 4.0097656 24.59375 C 4.0097656 23.757696 4.434775 22.895882 5.4140625 21.992188 C 6.39335 21.088493 7.9042995 20.205046 9.8144531 19.458984 C 10.432774 19.217483 11.105915 18.996837 11.802734 18.785156 z M 25 20 C 22.250421 20 20 22.250421 20 25 C 20 27.749579 22.250421 30 25 30 C 27.749579 30 30 27.749579 30 25 C 30 22.250421 27.749579 20 25 20 z M 25 22 C 26.668699 22 28 23.331301 28 25 C 28 26.668699 26.668699 28 25 28 C 23.331301 28 22 26.668699 22 25 C 22 23.331301 23.331301 22 25 22 z M 34.619141 27.363281 C 35.143596 28.604493 35.599462 29.819048 35.982422 30.990234 C 34.779808 31.269089 33.499292 31.504052 32.152344 31.689453 C 32.540071 31.070779 32.922982 30.44057 33.296875 29.792969 C 33.765554 28.981192 34.200846 28.17048 34.619141 27.363281 z M 15.341797 27.365234 C 15.762305 28.177437 16.200272 28.991753 16.671875 29.808594 C 17.041066 30.448052 17.418053 31.072363 17.800781 31.683594 C 16.457817 31.497372 15.181231 31.261605 13.982422 30.982422 C 14.363652 29.81481 14.819744 28.602796 15.341797 27.365234 z M 13.40625 32.923828 C 15.216074 33.352568 17.177716 33.681912 19.257812 33.896484 C 20.646655 35.905245 22.092677 37.70929 23.548828 39.287109 C 22.897813 39.921859 22.252566 40.517583 21.621094 41.03125 C 19.99538 42.353677 18.454326 43.251559 17.169922 43.667969 C 15.885516 44.084378 14.926946 44.029446 14.212891 43.617188 C 13.498835 43.204927 12.972987 42.402563 12.691406 41.082031 C 12.409825 39.761499 12.417606 37.979279 12.75 35.910156 C 12.900793 34.971492 13.12615 33.966374 13.40625 32.923828 z M 36.560547 32.931641 C 36.842786 33.979991 37.069087 34.989811 37.220703 35.933594 C 37.553389 38.004513 37.56169 39.788939 37.279297 41.113281 C 36.996903 42.437623 36.466746 43.24604 35.746094 43.662109 C 35.025442 44.078178 34.059594 44.13441 32.771484 43.716797 C 31.483374 43.299186 29.941578 42.397794 28.314453 41.074219 C 27.678439 40.556858 27.028726 39.958258 26.373047 39.318359 C 27.838664 37.73459 29.295467 35.920758 30.693359 33.900391 C 32.778701 33.687251 34.745791 33.359875 36.560547 32.931641 z M 21.867188 34.101562 C 22.893951 34.157518 23.934244 34.195312 25 34.195312 C 26.030504 34.195312 27.037063 34.159787 28.03125 34.107422 C 27.014961 35.478593 25.979034 36.725149 24.947266 37.847656 C 23.916125 36.722751 22.882145 35.473968 21.867188 34.101562 z"/>
</symbol>

<symbol id="i-redux" xmlns="http://www.w3.org/2000/svg"  viewBox="0 0 50 50"><path d="M 24 2 C 16.832 2 11 10.292328 11 20.486328 C 11 25.581015 12.484998 30.154506 14.841797 33.492188 C 14.278671 34.225786 14 35.114721 14 36 C 14 36.972222 14.318681 37.957881 15.001953 38.726562 C 15.685226 39.495244 16.75 40 18 40 C 19.25 40 20.314774 39.495244 20.998047 38.726562 C 21.681319 37.957881 22 36.972222 22 36 C 22 35.027778 21.681319 34.042119 20.998047 33.273438 C 20.314774 32.504756 19.25 32 18 32 C 17.417923 32 16.88232 32.117915 16.400391 32.3125 C 14.317709 29.317793 13 25.144037 13 20.486328 C 13 11.395328 17.935 4 24 4 C 29.419 4 33.923219 9.9093906 34.824219 17.650391 C 35.531219 17.919391 36.232734 18.222641 36.927734 18.556641 C 36.246734 9.2666406 30.71 2 24 2 z M 22 15 C 20.75 15 19.685226 15.504756 19.001953 16.273438 C 18.318681 17.042119 18 18.027778 18 19 C 18 19.972222 18.318681 20.957881 19.001953 21.726562 C 19.685226 22.495244 20.75 23 22 23 C 23.25 23 24.314774 22.495244 24.998047 21.726562 C 25.425092 21.246137 25.694239 20.67767 25.847656 20.083984 C 29.425245 19.930128 33.445887 20.987107 37.142578 23.203125 C 45.036578 27.935125 49.012859 36.186703 46.005859 41.595703 C 44.931859 43.526703 43.056938 44.897594 40.585938 45.558594 C 37.123937 46.486594 32.8715 45.916078 28.8125 44.080078 C 28.2265 44.551078 27.60675 44.996734 26.96875 45.427734 C 30.29375 47.106734 33.8125 47.996094 37.0625 47.996094 C 38.4735 47.996094 39.833516 47.830234 41.103516 47.490234 C 44.110516 46.685234 46.410906 44.982406 47.753906 42.566406 C 51.277906 36.224406 46.978922 26.769281 38.169922 21.488281 C 34.19387 19.103202 29.825568 17.936523 25.886719 18.064453 C 25.744166 17.416386 25.4608 16.794034 24.998047 16.273438 C 24.314774 15.504756 23.25 15 22 15 z M 22 17 C 22.749999 17 23.185226 17.245244 23.501953 17.601562 C 23.81868 17.957881 24 18.472222 24 19 C 24 19.527778 23.81868 20.042119 23.501953 20.398438 C 23.185226 20.754756 22.749999 21 22 21 C 21.250001 21 20.814774 20.754756 20.498047 20.398438 C 20.18132 20.042119 20 19.527778 20 19 C 20 18.472222 20.18132 17.957881 20.498047 17.601562 C 20.814774 17.245244 21.250001 17 22 17 z M 9.1621094 23.332031 C 2.1981094 28.772031 -0.89795313 36.906406 2.2480469 42.566406 C 3.5910469 44.982406 5.8914375 46.683281 8.8984375 47.488281 C 10.169438 47.828281 11.528453 47.996094 12.939453 47.996094 C 16.739453 47.996094 20.911031 46.787719 24.707031 44.511719 C 29.262758 41.780488 32.543671 37.933128 34.212891 33.978516 C 35.367764 33.923167 36.355158 33.449812 36.998047 32.726562 C 37.681319 31.957881 38 30.972222 38 30 C 38 29.027778 37.681319 28.042118 36.998047 27.273438 C 36.314774 26.504756 35.25 26 34 26 C 32.75 26 31.685226 26.504756 31.001953 27.273438 C 30.318681 28.042119 30 29.027778 30 30 C 30 30.972222 30.318681 31.957882 31.001953 32.726562 C 31.334027 33.100145 31.760237 33.407648 32.25 33.628906 C 30.681548 37.037695 27.715244 40.376565 23.677734 42.796875 C 18.927734 45.645875 13.596062 46.678594 9.4140625 45.558594 C 6.9420625 44.896594 5.0690938 43.526703 3.9960938 41.595703 C 1.4540938 37.022703 3.9149531 30.427766 9.5019531 25.634766 C 9.3569531 24.883766 9.2441094 24.114031 9.1621094 23.332031 z M 34 28 C 34.749999 28 35.185226 28.245244 35.501953 28.601562 C 35.81868 28.957881 36 29.472222 36 30 C 36 30.527778 35.81868 31.042118 35.501953 31.398438 C 35.185226 31.754756 34.749999 32 34 32 C 33.250001 32 32.814774 31.754756 32.498047 31.398438 C 32.18132 31.042119 32 30.527778 32 30 C 32 29.472222 32.18132 28.957882 32.498047 28.601562 C 32.814774 28.245244 33.250001 28 34 28 z M 18 34 C 18.749999 34 19.185226 34.245244 19.501953 34.601562 C 19.81868 34.957881 20 35.472222 20 36 C 20 36.527778 19.81868 37.042119 19.501953 37.398438 C 19.185226 37.754756 18.749999 38 18 38 C 17.250001 38 16.814774 37.754756 16.498047 37.398438 C 16.18132 37.042119 16 36.527778 16 36 C 16 35.472222 16.18132 34.957881 16.498047 34.601562 C 16.814774 34.245244 17.250001 34 18 34 z"/>
</symbol>

<symbol id="i-ts" xmlns="http://www.w3.org/2000/svg" viewBox="0 0 24 24"><path d="M23.5 24H.5a.5.5 0 0 1-.5-.5V.5A.5.5 0 0 1 .5 0h23a.5.5 0 0 1 .5.5v23a.5.5 0 0 1-.5.5zM1 23h22V1H1v22zm17.165-.886a6.71 6.71 0 0 1-1.068-.072c-1.03-.185-2.011-.699-2.623-1.377-.932-1.029-.73-1.359-.654-1.483.077-.117.163-.178.388-.307l.003-.002c.103-.058.487-.28.85-.491l.662-.383a.498.498 0 0 1 .664.152l.139.205c.162.246.525.585.691.673.585.309 1.364.232 1.671-.042a.351.351 0 0 0 .135-.275c-.001-.222-.011-.235-.085-.343-.108-.155-.492-.365-1.368-.746-1.242-.535-1.809-.888-2.332-1.451a3.53 3.53 0 0 1-.739-1.326c-.118-.437-.142-1.326-.056-1.733.285-1.337 1.314-2.298 2.754-2.571.475-.09 1.482-.062 1.958.057a3.388 3.388 0 0 1 1.678.968c.01.012.597.646.676.964.095.356.113.422-1.819 1.622-.287.192-.59.07-.887-.372-.233-.338-.419-.41-.701-.43-.223-.017-.402.027-.501.121-.071.067-.107.169-.106.304a.402.402 0 0 0 .03.182l.018.034c.075.156.263.3 1.081.653 1.747.752 2.507 1.263 3.008 2.023.579.878.709 2.217.317 3.256-.431 1.133-1.471 1.892-2.929 2.138a5.675 5.675 0 0 1-.855.052zm-3.24-2.498c.1.142.212.292.29.378.469.52 1.238.917 2.058 1.063.374.067 1.242.077 1.578.018 1.097-.186 1.864-.72 2.164-1.507.277-.733.184-1.744-.217-2.351-.378-.574-1.027-.992-2.57-1.656-.9-.39-1.325-.633-1.566-1.099l-.007-.014a1.346 1.346 0 0 1-.16-.636c-.001-.451.145-.811.423-1.072.309-.29.743-.428 1.255-.39.57.04.993.265 1.353.722.295-.19.597-.392.82-.544a4.977 4.977 0 0 0-.235-.273 2.35 2.35 0 0 0-1.195-.687c-.329-.083-1.2-.107-1.531-.046-1.046.199-1.762.854-1.962 1.796-.052.248-.032.987.034 1.234.105.353.286.678.524.947.411.442.877.726 1.987 1.204 1.162.505 1.546.74 1.793 1.094.199.289.262.5.262.87.001.44-.173.815-.477 1.072-.643.578-1.876.658-2.794.173-.277-.146-.664-.494-.923-.82l-.265.153-.639.371zm-4.276 2.376H8.531a.5.5 0 0 1-.5-.5v-8.006H5.539a.5.5 0 0 1-.5-.5v-.924c0-1.016 0-1.178.19-1.324a.206.206 0 0 1 .04-.029l.018-.012.001.002c.228-.111.92-.107 4.318-.104l4.021.011a.5.5 0 0 1 .499.494l.018 1.883a.499.499 0 0 1-.5.503h-2.495v8.006a.5.5 0 0 1-.5.5zm-1.618-1h1.118v-8.006a.5.5 0 0 1 .5-.5h2.49l-.008-.882-3.527-.01a310.68 310.68 0 0 0-3.562.007l-.002.461v.424h2.492a.5.5 0 0 1 .5.5v8.006z"></path>
</symbol>

<symbol id="i-js" xmlns="http://www.w3.org/2000/svg"  viewBox="0 0 64 64"><path d="M 12.576172 6 C 8.9635789 6 6 8.9635789 6 12.576172 L 6 51.423828 C 6 55.036421 8.9635789 58 12.576172 58 L 51.423828 58 C 55.036204 58 58 55.037335 58 51.425781 L 58 12.576172 C 58 8.9637963 55.036204 6 51.423828 6 L 12.576172 6 z M 12.576172 8 L 51.423828 8 C 53.945453 8 56 10.054547 56 12.576172 L 56 51.425781 C 56 53.946228 53.945453 56 51.423828 56 L 12.576172 56 C 10.054765 56 8 53.945235 8 51.423828 L 8 12.576172 C 8 10.054765 10.054765 8 12.576172 8 z M 12 12 C 11.448 12 11 12.448 11 13 L 11 15 C 11 15.552 11.448 16 12 16 C 12.552 16 13 15.552 13 15 L 13 13 C 13 12.448 12.552 12 12 12 z M 17 12 C 16.448 12 16 12.448 16 13 L 16 15 C 16 15.552 16.448 16 17 16 C 17.552 16 18 15.552 18 15 L 18 13 C 18 12.448 17.552 12 17 12 z M 22 12 C 21.448 12 21 12.448 21 13 L 21 15 C 21 15.552 21.448 16 22 16 C 22.552 16 23 15.552 23 15 L 23 13 C 23 12.448 22.552 12 22 12 z M 27 12 C 26.448 12 26 12.448 26 13 L 26 15 C 26 15.552 26.448 16 27 16 C 27.552 16 28 15.552 28 15 L 28 13 C 28 12.448 27.552 12 27 12 z M 32 12 C 31.448 12 31 12.448 31 13 L 31 15 C 31 15.552 31.448 16 32 16 C 32.552 16 33 15.552 33 15 L 33 13 C 33 12.448 32.552 12 32 12 z M 37 12 C 36.448 12 36 12.448 36 13 L 36 15 C 36 15.552 36.448 16 37 16 C 37.552 16 38 15.552 38 15 L 38 13 C 38 12.448 37.552 12 37 12 z M 42 12 C 41.448 12 41 12.448 41 13 L 41 15 C 41 15.552 41.448 16 42 16 C 42.552 16 43 15.552 43 15 L 43 13 C 43 12.448 42.552 12 42 12 z M 47 12 C 46.448 12 46 12.448 46 13 L 46 15 C 46 15.552 46.448 16 47 16 C 47.552 16 48 15.552 48 15 L 48 13 C 48 12.448 47.552 12 47 12 z M 52 12 C 51.448 12 51 12.448 51 13 L 51 15 C 51 15.552 51.448 16 52 16 C 52.552 16 53 15.552 53 15 L 53 13 C 53 12.448 52.552 12 52 12 z M 29.332031 30.117188 A 1.0001 1.0001 0 0 0 28.332031 31.117188 L 28.332031 45.599609 C 28.332031 46.583354 28.136686 46.99404 27.996094 47.142578 C 27.855501 47.291116 27.611983 47.392578 27 47.392578 C 25.862422 47.392578 25.136008 46.756569 24.535156 45.705078 A 1.0001 1.0001 0 0 0 23.154297 45.341797 L 19.486328 47.535156 A 1.0001 1.0001 0 0 0 19.097656 48.824219 C 20.313848 51.366541 23.225258 54 27.273438 54 C 29.444454 54 31.401529 53.422848 32.814453 52.109375 C 34.227377 50.795902 35 48.800797 35 46.300781 L 35 31.117188 A 1.0001 1.0001 0 0 0 34 30.117188 L 29.332031 30.117188 z M 45.626953 30.117188 C 41.354022 30.117188 38.333984 33.131267 38.333984 36.923828 C 38.333984 38.904389 38.942484 40.511689 39.996094 41.724609 C 41.049704 42.93753 42.479862 43.756743 44.095703 44.460938 L 45.167969 44.931641 C 46.128502 45.361332 46.788239 45.704822 47.103516 45.984375 C 47.420042 46.265036 47.494141 46.39181 47.494141 46.931641 C 47.494141 47.312893 47.391268 47.527763 47.160156 47.722656 C 46.929045 47.91755 46.498885 48.099609 45.779297 48.099609 C 44.95151 48.099609 44.461231 47.856595 43.974609 47.423828 C 43.487988 46.991061 43.04841 46.328896 42.597656 45.576172 A 1.0001 1.0001 0 0 0 41.175781 45.263672 L 37.796875 47.566406 A 1.0001 1.0001 0 0 0 37.464844 48.835938 C 38.842202 51.620145 41.546086 54 45.880859 54 C 48.09844 54 50.109563 53.415015 51.601562 52.197266 C 53.093564 50.979516 53.999177 49.110242 53.998047 46.876953 C 53.99762 44.855279 53.380573 43.217807 52.25 41.976562 C 51.119378 40.735264 49.563872 39.880766 47.6875 39.058594 L 47.685547 39.058594 L 46.615234 38.589844 L 46.613281 38.587891 C 45.718124 38.191104 45.139947 37.867981 44.878906 37.625 C 44.617516 37.381694 44.568359 37.293769 44.568359 36.835938 C 44.568359 36.268374 44.798618 35.951172 45.625 35.951172 C 46.09891 35.951172 46.368938 36.034562 46.634766 36.214844 C 46.900593 36.395123 47.191654 36.721404 47.513672 37.3125 A 1.0001 1.0001 0 0 0 48.939453 37.669922 L 52.285156 35.472656 A 1.0001 1.0001 0 0 0 52.611328 34.150391 C 51.058008 31.354414 48.596142 30.117187 45.626953 30.117188 z M 30.332031 32.117188 L 33 32.117188 L 33 46.300781 C 33 48.404765 32.405701 49.759004 31.453125 50.644531 C 30.500549 51.530058 29.094421 52 27.273438 52 C 24.513233 52 22.596423 50.334907 21.501953 48.660156 L 23.488281 47.472656 C 24.333123 48.516351 25.445083 49.392578 27 49.392578 C 27.869017 49.392578 28.791608 49.21029 29.447266 48.517578 C 30.102923 47.824866 30.332031 46.838865 30.332031 45.599609 L 30.332031 32.117188 z M 45.626953 32.117188 C 47.756355 32.117188 49.078212 32.849947 50.230469 34.429688 L 48.568359 35.523438 C 48.305885 35.19343 48.090887 34.785803 47.755859 34.558594 C 47.131437 34.135123 46.38609 33.951172 45.625 33.951172 C 43.933382 33.951172 42.568359 35.271501 42.568359 36.835938 C 42.568359 37.697105 42.918969 38.53265 43.517578 39.089844 C 44.116188 39.647038 44.859851 39.998485 45.806641 40.417969 A 1.0001 1.0001 0 0 0 45.808594 40.419922 L 46.882812 40.890625 C 48.657679 41.668222 49.958949 42.432144 50.771484 43.324219 C 51.58402 44.216294 51.998047 45.230549 51.998047 46.878906 C 51.998917 48.599618 51.38514 49.791734 50.337891 50.646484 C 49.290594 51.501188 47.744279 52 45.880859 52 C 42.647837 52 40.880567 50.601247 39.714844 48.679688 L 41.523438 47.447266 C 41.862778 47.955024 42.154553 48.480479 42.646484 48.917969 C 43.420363 49.606202 44.488084 50.099609 45.779297 50.099609 C 46.839709 50.099609 47.76783 49.82656 48.449219 49.251953 C 49.130607 48.677347 49.494141 47.808388 49.494141 46.931641 C 49.494141 45.964471 49.086161 45.070371 48.429688 44.488281 C 47.773212 43.906192 46.969797 43.545478 45.976562 43.101562 A 1.0001 1.0001 0 0 0 45.970703 43.099609 L 44.896484 42.628906 A 1.0001 1.0001 0 0 0 44.894531 42.626953 C 43.410372 41.980147 42.259703 41.277689 41.507812 40.412109 C 40.755924 39.54653 40.333984 38.520268 40.333984 36.923828 C 40.333984 34.12439 42.225884 32.117187 45.626953 32.117188 z"/>
</symbol>

<symbol id="i-scroll" viewBox="-90 0 512 512"  xmlns="http://www.w3.org/2000/svg"><path d="m166.238281 430.144531-89.769531-94.898437 29.058594-27.488282 60.632812 64.097657 60.273438-64.058594 29.132812 27.410156zm165.761719-38.144531v-272c0-66.167969-53.832031-120-120-120h-92c-66.167969 0-120 53.832031-120 120v272c0 66.167969 53.832031 120 120 120h92c66.167969 0 120-53.832031 120-120zm-120-352c44.113281 0 80 35.886719 80 80v272c0 44.113281-35.886719 80-80 80h-92c-44.113281 0-80-35.886719-80-80v-272c0-44.113281 35.886719-80 80-80zm-46 41c-11.046875 0-20 8.953125-20 20s8.953125 20 20 20 20-8.953125 20-20-8.953125-20-20-20zm0 80c-11.046875 0-20 8.953125-20 20s8.953125 20 20 20 20-8.953125 20-20-8.953125-20-20-20zm0 80c-11.046875 0-20 8.953125-20 20s8.953125 20 20 20 20-8.953125 20-20-8.953125-20-20-20zm0 0"/>
</symbol>

<symbol id="i-twitter" viewBox="0 0 30 30" xmlns="http://www.w3.org/2000/svg">
	<circle cx="15" cy="15" r="15" fill="currentColor" />
	<path d="M24.7026 9.11415C24.0067 9.42248 23.2592 9.63082 22.4734 9.72498C23.2842 9.23981 23.8908 8.4762 24.1801 7.57665C23.4183 8.02914 22.5845 8.34765 21.7151 8.51832C21.1304 7.89404 20.3559 7.48025 19.512 7.34121C18.668 7.20217 17.8018 7.34564 17.0477 7.74936C16.2937 8.15308 15.694 8.79445 15.3418 9.5739C14.9897 10.3534 14.9047 11.2273 15.1001 12.06C13.5565 11.9825 12.0464 11.5813 10.6679 10.8824C9.2894 10.1835 8.07325 9.20262 7.09838 8.00332C6.76505 8.57832 6.57338 9.24498 6.57338 9.95498C6.57301 10.5941 6.73041 11.2235 7.03162 11.7873C7.33282 12.351 7.76852 12.8317 8.30005 13.1866C7.68361 13.167 7.08078 13.0005 6.54172 12.7008V12.7508C6.54166 13.6473 6.85174 14.5161 7.41937 15.21C7.98699 15.9038 8.77719 16.3799 9.65588 16.5575C9.08404 16.7122 8.4845 16.735 7.90255 16.6241C8.15047 17.3955 8.63338 18.07 9.28369 18.5533C9.934 19.0365 10.7191 19.3043 11.5292 19.3191C10.1541 20.3987 8.45579 20.9842 6.70755 20.9816C6.39787 20.9817 6.08845 20.9636 5.78088 20.9275C7.55545 22.0685 9.62117 22.674 11.7309 22.6716C18.8726 22.6716 22.7767 16.7566 22.7767 11.6266C22.7767 11.46 22.7726 11.2916 22.7651 11.125C23.5245 10.5758 24.18 9.89573 24.7009 9.11665L24.7026 9.11415Z" />
</symbol>
<symbol id="i-habr" viewBox="0 0 30 30" xmlns="http://www.w3.org/2000/svg">
	<circle cx="15" cy="15" r="15" fill="currentColor" />
	<path d="M5.94996 12.7458L6.09162 12.9567C5.80829 12.9483 5.51162 12.9208 5.45496 12.7992C5.45496 12.7933 5.45662 12.7875 5.45829 12.7817C5.61662 12.74 5.75246 12.7375 5.94996 12.7458ZM7.45496 13.3875L7.52329 13.5958L7.36329 13.6025L7.40162 13.3892C7.41943 13.3892 7.43723 13.3883 7.45496 13.3867V13.3875ZM7.99996 14.9083C7.85829 15.0383 7.74912 15.125 7.66496 15.3225C7.54829 15.2267 7.48746 15.0367 7.44996 14.8242C7.40829 14.5925 7.39496 14.335 7.36329 14.1425L7.37329 14.0442L7.53746 14.0325L7.95579 14.8242L7.99996 14.9075V14.9083ZM7.78829 12.9567C7.80907 12.8143 7.83046 12.6721 7.85246 12.53L7.90662 12.5267C7.86662 12.67 7.82662 12.8133 7.78829 12.9567ZM7.67412 11.0217L8.42412 11.225C8.4229 11.2361 8.42179 11.2472 8.42079 11.2583C8.07162 11.5167 7.74912 11.63 7.57579 12.0967L7.64162 11.0583L7.67412 11.0225V11.0217ZM8.37412 9.94666C8.32579 10.43 8.39412 10.6433 8.47829 10.9433C8.61162 11.0383 8.66496 11.0958 8.62162 11.2367C8.39662 11.125 8.15829 11.0083 7.81329 11.0267C7.80488 11.017 7.79654 11.0073 7.78829 10.9975C7.88496 10.6167 8.07329 10.3825 8.21912 10.0808L8.37496 9.94582L8.37412 9.94666ZM9.45246 9.30332L9.48496 9.30082C9.38162 9.65749 9.33996 10.48 9.15912 10.8067C8.73162 10.6042 8.73996 9.72666 9.21829 9.37999L9.45162 9.30332H9.45246ZM9.05412 11.945L9.41412 12.3358C9.27246 12.7708 9.00496 13.0983 8.89162 13.6025L8.67912 13.5858C8.49746 13.0783 8.95162 12.2517 9.02912 11.8817L9.36246 11.92C9.40412 12.0242 9.44412 12.1283 9.48496 12.2333L9.05412 11.9442V11.945ZM10.0391 9.29999C10.0025 9.72249 10.0958 9.94166 10.1208 10.2683C9.90912 10.3767 9.69662 10.4833 9.48496 10.5908C9.52427 10.1535 9.62905 9.72453 9.79579 9.31832L10.0391 9.29999ZM10.2858 8.65832L10.3333 8.65499L10.2616 8.86082L10.1208 8.86999L10.2291 8.74249L10.2858 8.65832ZM10.3333 10.6292L9.69662 11.0208C9.70996 10.7842 10.0116 10.465 10.2641 10.3767L10.3225 10.4083L10.3333 10.6292ZM10.7583 9.14749C10.7191 9.36582 10.6808 9.58332 10.6433 9.80166L10.5241 9.87666L10.4608 9.94582C10.3458 9.78416 10.3166 9.38749 10.3416 9.08582L10.7583 9.14749ZM11.1816 8.65582C11.1816 8.66416 11.18 8.67082 11.1791 8.67749L11.0166 8.83332C10.9083 8.87499 10.895 8.87332 10.7583 8.86832C10.7758 8.79749 10.7958 8.72666 10.815 8.65582H11.1816ZM11.6066 7.79582L11.4166 8.22499L10.7583 8.17749L10.7608 8.14249C11.0316 8.01749 11.2691 7.86916 11.6058 7.79499L11.6066 7.79582ZM11.2633 8.91249L11.3333 8.87082L11.3941 9.08582L11.1816 9.04416L11.2633 8.91166V8.91249ZM11.8183 9.54832C11.5658 9.64666 11.2166 9.61916 11.0141 9.73166C10.9996 9.64552 10.9849 9.55941 10.97 9.47332L11.1016 9.30082C11.3158 9.38416 11.53 9.46916 11.7433 9.55332L11.8183 9.54832ZM11.2758 9.93499L10.9875 9.94582C10.9808 9.91582 10.9758 9.88582 10.97 9.85499C11.1725 9.77249 11.5125 9.76499 11.8183 9.73082L11.4958 9.90832L11.2758 9.93499ZM12.03 9.93499C11.7875 9.99582 11.555 10.21 11.3958 10.3767C11.365 10.1817 11.7391 9.83832 11.9183 9.73082C11.9975 9.80166 12.0058 9.79416 12.03 9.93499ZM12.455 7.36582L12.4516 7.39916L12.1966 7.55332L11.8183 7.58082L11.8216 7.54749L12.455 7.36582ZM12.1116 8.01082L12.03 7.88999C12.2216 7.72916 12.6441 7.81749 12.8791 7.84166L12.1116 8.01082ZM14.01 7.37749C14.3641 7.40666 14.6883 7.48999 14.935 7.64416L15 7.63999L14.9608 7.69499L14.6216 7.79499C14.4175 7.76666 14.2133 7.73666 14.01 7.70749L12.6666 7.51666L12.67 7.48916C13.1085 7.385 13.5603 7.34763 14.01 7.37832V7.37749ZM15.4208 7.26416L15.3458 7.36582C15.1424 7.35128 14.948 7.27642 14.7875 7.15082L15.4241 7.23166L15.4208 7.26416ZM16.5508 8.05916L16.7266 7.99249L16.9091 8.14916C16.8841 8.32832 16.7116 8.47499 16.5791 8.64916L16.4775 8.65582C16.2008 8.19749 15.8516 7.69666 15.2391 7.51999L15.2125 7.46582L15.46 7.36582C15.8758 7.51082 16.2225 7.73082 16.6083 7.85749C16.6583 7.97832 16.6425 7.93749 16.55 8.05916H16.5508ZM17.0625 9.07832L17.0141 9.03082L16.9091 9.03832L17.0841 8.87166L17.0625 9.07832ZM17.25 11.4517C17.5366 11.7 17.61 12.06 17.4908 12.5267C17.3675 12.25 17.245 11.9725 17.1208 11.6958C17.1625 11.6342 17.2016 11.5725 17.2425 11.5108C17.245 11.4908 17.2466 11.4708 17.25 11.4517ZM17.3333 9.51832L17.33 9.55832L17.1791 9.73082L17.1208 9.61666C17.2116 9.45416 17.1458 9.54166 17.265 9.52499L17.3333 9.51832ZM17.51 9.51582L18.1816 9.76499C18.1805 9.78728 18.1786 9.80952 18.1758 9.83166C18.1191 9.87082 18.0625 9.90832 18.0058 9.94582L17.3333 9.69749L17.3391 9.62999L17.51 9.51582ZM18.8183 10.3767L18.4458 10.1292L18.3941 10.0292C18.5558 9.92916 18.5325 9.93416 18.7033 9.96749C18.7408 10.1042 18.78 10.24 18.8183 10.3758V10.3767ZM19.03 10.295L18.955 10.3767C18.865 10.33 18.8491 10.2708 18.8183 10.1608L19.0125 10.2458L19.03 10.295ZM18.8716 9.67916L18.8183 9.68332C18.8766 9.62749 18.935 9.57166 18.995 9.51666C18.9533 9.57082 18.9116 9.62499 18.8716 9.67916ZM19.8791 10.7608L19.775 10.8067C19.5856 10.7006 19.3964 10.5942 19.2075 10.4875C19.1481 10.407 19.089 10.3265 19.03 10.2458C19.3241 10.0292 19.335 10.2808 19.6125 10.4183L19.8791 10.7608ZM20.0908 10.9508L19.8791 10.8733L20.0066 10.8067L20.0908 10.9508ZM19.8325 11.2975C19.9091 11.4517 19.9091 11.4083 20.0908 11.385L19.765 11.6667L19.4541 11.0733L19.4583 11.0367C19.6875 10.9875 19.7608 11.07 19.985 11.1033L20.0708 11.2417L19.8333 11.2975H19.8325ZM19.8791 11.6833L20.3033 11.4517C20.2183 11.6433 20.1075 11.7417 19.9766 11.8817L19.8791 11.6833ZM20.7275 12.5042C20.6125 12.6033 20.5375 12.635 20.32 12.6533L20.495 12.6725L20.4916 12.7033L19.8941 12.9567L19.8791 12.19L20.2908 11.7025L20.3658 11.6667L20.7275 12.5042ZM20.515 11.3275C21.6866 11.0008 21.46 11.6225 20.9375 12.0967C20.7958 11.8408 20.655 11.5842 20.515 11.3275ZM21.5758 11.4517C21.1441 13.48 21.0608 13.5908 19.5341 14.4625C19.5085 14.4215 19.4818 14.3812 19.4541 14.3417L19.5083 14.115C20.5041 13.8317 21.07 13.31 21.0108 12.1292L21.51 11.4875L21.5758 11.4517ZM21.6275 11.4517C21.6108 11.3817 21.5941 11.3117 21.5758 11.2417L21.7341 11.2367L21.6275 11.4517ZM19.03 13.4242L19.045 13.2L19.0583 13.0083L19.205 12.9592C19.2125 12.9592 19.2191 12.9575 19.2258 12.9567C19.2675 13.2108 19.2258 13.3983 19.1425 13.6025C19.0708 13.5567 19.0566 13.5375 19.03 13.4242ZM18.1816 15.3058L18.185 15.2683L18.4633 14.6025L18.5216 14.4625L19.0116 14.4958C19.0191 14.5325 19.0241 14.5683 19.0266 14.6025C19.0483 14.8558 18.9608 15.0583 18.8708 15.3225L18.1816 15.3058ZM18.3941 16.1692L18.4 15.8358L18.4083 15.7525L18.7666 15.7792L18.8183 15.775C18.7358 15.9108 18.6541 16.0467 18.5733 16.1833L18.3941 16.1692ZM18.1841 14.7775L18.2058 14.7667L18.375 14.6792L18.3941 14.6775L18.3691 14.7667L18.27 15.1075L18.1816 14.8042L18.1841 14.7775ZM17.8533 15.8483L17.7575 15.7525C17.8508 15.8175 17.79 15.7542 17.8533 15.8483ZM17.3333 15.5925C17.4525 15.5175 17.5816 15.5408 17.7583 15.5425L17.7058 15.715C17.56 15.7733 17.5391 15.7517 17.375 15.7342L17.3333 15.5925ZM17.5933 16.3975L17.7575 16.7858C17.6308 16.8717 17.5033 16.9567 17.3766 17.0433C17.2633 16.8875 17.3866 16.4517 17.5933 16.3975ZM17.1741 15.0475L17.1208 15.0517L17.1908 14.8925L17.1741 15.0483V15.0475ZM17.785 15.1075L17.7575 15.09L17.8508 14.8933L17.8816 14.8925L17.97 15.0992L17.785 15.1075ZM19.2541 12.3117L19.2425 12.2392C19.2983 12.1708 19.3341 12.1283 19.43 12.0975L19.455 12.2242C19.4133 12.2517 19.3716 12.2783 19.3308 12.3067L19.2541 12.3117ZM19.2425 12.8367C19.2041 12.8875 19.1358 12.9158 19.0875 12.9567L19.03 11.8817L19.2425 12.8367ZM18.8533 14.2783C18.9933 14.2 19.0133 14.2725 19.03 14.4617H18.6058L18.6133 14.395L18.8533 14.2783ZM18.645 13.6842L18.7408 13.6025L18.8183 13.7408L18.7825 13.8175L18.6058 13.7967L18.645 13.6842ZM18.6058 14.2542L18.385 14.4625L18.2408 14.4383L18.1825 14.4442C18.2158 14.3783 18.2508 14.3125 18.285 14.2475L18.6058 14.2542ZM17.8058 14.1317C17.7175 14.07 17.7808 14.0783 17.7641 14.0317L17.8058 14.1317ZM18.4741 13.1717L17.7575 12.8C17.7908 12.3083 17.8508 11.7433 17.8025 11.2367C18.355 11.4367 18.8508 12.3358 18.4741 13.1717ZM17.97 13.1717C18.1458 13.265 18.1366 13.35 18.3808 13.425C18.4233 13.5842 18.3583 13.6475 18.2566 13.8167L17.9966 13.8067C17.9433 13.5233 18.0016 13.3608 17.97 13.1717ZM18.0183 14.5625C17.9291 14.5008 17.9933 14.5092 17.9766 14.4625L18.0183 14.5625ZM19.4541 12.4925L19.4566 12.4525L19.6483 12.3117C19.6816 12.5317 19.6691 12.8983 19.6191 13.1717C19.5058 13.0833 19.485 12.71 19.4541 12.4925ZM19.4541 13.1717C19.4975 13.1 19.5408 13.0283 19.5825 12.9567L19.5075 13.1683L19.4541 13.1717ZM20.6916 12.5292L20.7275 12.5267C20.7375 13.3508 20.2291 13.5008 19.5608 13.81L19.4541 13.8175L19.8708 12.9542L20.6916 12.5292ZM19.4333 10.9192C19.44 10.9408 19.4475 10.9617 19.4533 10.9833L19.4008 11.0217L19.2416 10.8067L19.4333 10.9192ZM19.2416 11.2775L19.2475 11.24C19.263 11.2387 19.2786 11.2376 19.2941 11.2367L19.4541 11.4517C19.3308 11.3933 19.3108 11.3783 19.2416 11.2767V11.2775ZM19.4533 11.8275L19.1675 12.0967L18.5533 11.205L17.7566 10.5133L17.9316 10.3767C18.3175 10.5433 18.9925 10.8608 19.1283 11.2575C19.1725 11.3867 19.02 11.4933 19.1233 11.6008C19.2466 11.7292 19.37 11.6375 19.4541 11.8267L19.4533 11.8275ZM17.6633 13.1717L17.7283 13.1975L17.7566 13.8175L17.6575 13.7942C17.5641 13.725 17.4991 13.405 17.5841 13.2658L17.6633 13.1717ZM17.1933 14.25L17.2616 14.2475L17.3325 14.4158L17.2241 14.4575L17.12 14.4625C17.145 14.3917 17.17 14.3208 17.1933 14.25ZM17 17.6883L16.9083 17.3742C17.0391 17.3367 17.1691 17.2992 17.3 17.26L17.3333 17.2583C17.3316 17.268 17.3302 17.2777 17.3291 17.2875L17 17.6875V17.6883ZM16.6958 16.8283C16.735 16.7017 16.7625 16.6825 16.8333 16.6125L16.8916 16.6358L16.9083 16.6908L16.7775 16.8192L16.6958 16.8275V16.8283ZM16.7958 17.0433L16.6958 16.9333L16.9083 16.8283L16.8533 17.0392L16.7958 17.0433ZM16.5725 18.0183C16.5425 17.995 16.5141 17.9708 16.4841 17.9458L16.5491 17.9417L16.8766 17.6883L16.9083 17.9467L16.6575 18.1183L16.5725 18.0183ZM16.5891 20.4817C16.0783 20.5033 15.7725 20.3733 15.3558 20.3367L14.8783 19.3925L14.7866 19.2975C15.5883 19.2025 16.0925 18.8158 16.6866 18.5483C16.8966 18.7483 17.3725 19.7667 16.9533 20.2175C16.8533 20.3717 16.7408 20.3875 16.5883 20.4817H16.5891ZM14.3958 19.4208L14.5875 19.4083C14.8766 19.6025 15.0733 19.95 15.2116 20.2692L14.3625 20.0233C14.4258 19.8083 14.4525 19.59 14.3958 19.4208ZM13.7858 18.6092L14.7425 18.3333L16.2458 18.48L16.2725 18.5558C15.825 18.7575 15.3158 18.9275 14.8025 19.1875C14.2466 19.2317 14.1125 19.0242 13.7275 18.8875L13.7866 18.6092H13.7858ZM13.7266 19.6225L13.7458 19.4358L14.1116 19.4083C14.1416 19.5708 14.1733 19.6617 14.1283 19.8383L13.7266 19.6217V19.6225ZM13.3016 19.9592L13.4441 19.8808C13.6191 19.765 13.75 19.9192 13.9383 19.98L13.8633 20.0533L13.3025 19.9592H13.3016ZM13.7141 19.6233C13.6679 19.6028 13.6218 19.5819 13.5758 19.5608L13.5141 19.4083L13.7266 19.4217L13.7141 19.6233ZM13.09 19.6233L13.3025 19.8058C13.3025 19.9183 13.2925 19.9058 13.2666 20.0533L13.09 19.6233ZM12.54 18.8175C12.7391 18.7567 13.0041 18.77 13.3025 18.7633L13.025 18.9783L12.4541 18.9225L12.54 18.8175ZM12.03 8.03999C12.4241 7.66332 13.4125 7.77582 13.66 8.01499L13.7266 8.00916C13.3975 8.31666 12.8875 8.35166 12.5741 8.65582C12.3283 8.49249 12.125 8.38749 12.03 8.03999ZM14.1966 8.65582L14.3633 8.84499C14.215 8.85332 14.0591 8.86249 13.9033 8.87582C13.5525 8.90582 13.2058 8.95832 12.9633 9.08416L12.9316 9.08582C12.9141 9.05834 12.8966 9.03084 12.8791 9.00332C13.2772 8.79451 13.7167 8.67667 14.1658 8.65832L14.1966 8.65582ZM15.0233 7.58082C15.2975 7.85582 15.7066 8.01916 15.8483 8.44082C15.2733 8.17332 14.3883 8.17749 13.94 7.75166C14.335 7.83582 14.6716 7.80416 15.0233 7.58082ZM15.2125 9.08582L15.9991 9.19416L16.0608 9.18916L15.43 9.73082C15.33 9.53166 15.3066 9.26166 15.2125 9.08582ZM16.2233 10.0058L16.0608 9.98082L16.2725 9.94582L16.2225 10.0058H16.2233ZM16.0608 9.49166L16.255 9.30082L16.2725 9.51582L16.1316 9.48499L16.0608 9.49166ZM16.4458 16.6083L16.3525 16.6125L16.2725 16.5375L16.3341 16.4567L16.4841 16.3983L16.4458 16.6092V16.6083ZM16.2766 17.0017C16.3016 16.9717 16.3283 16.9417 16.355 16.9117L16.3616 16.8283L16.485 17.0242L16.2725 17.0433L16.2766 17.0017ZM16.1925 17.6883L16.0608 17.53L16.485 17.4733L16.2825 17.6817L16.1925 17.6883ZM16.2725 18.3333L15.8483 18.2825L16.1483 18.1183L16.2733 18.3333H16.2725ZM15.975 17.7267L16.0608 17.8083L15.7533 17.8867L15.4241 17.9033L15.8825 17.6883L15.975 17.7267ZM14.7883 8.44082C15.0358 8.44749 15.2975 8.50999 15.4241 8.65582C15.2533 8.63916 14.9458 8.66666 14.8683 8.53499L14.7883 8.44082ZM15.0033 9.30082C15.1241 9.40666 15.1666 9.53166 15.145 9.73082C14.9583 9.66666 15.0066 9.46249 15.0033 9.30082ZM15.2116 10.6567L15.2191 10.62C15.6416 10.5283 15.7325 10.675 15.54 10.8067C15.3733 10.7833 15.2983 10.7208 15.2125 10.6567H15.2116ZM15.7558 16.1825L15.8483 16.2058C15.8471 16.2158 15.8459 16.2258 15.845 16.2358L15.6366 16.3975L15.7233 16.185L15.7558 16.1825ZM15.6391 10.9375L15.7975 10.8067L15.8483 11.0217L15.6366 10.975L15.6383 10.9375H15.6391ZM16.2725 16.6875L15.76 16.8217L15.6366 16.8275C15.6366 16.8208 15.6383 16.8133 15.64 16.8067C15.8316 16.7683 15.955 16.705 16.0683 16.6125L16.2483 16.6458L16.2733 16.6875H16.2725ZM15.9066 16.1825L15.8483 16.0633L15.9941 15.9675L16.0608 16.0033L15.9775 16.1767L15.9066 16.1825ZM14.5758 17.67L14.8283 17.4733L15.61 17.54L15.6366 17.5983L15.1083 17.9033C14.9125 17.8708 14.7433 17.7842 14.6416 17.665L14.575 17.67H14.5758ZM14.1833 17.6883L14.575 17.9033L13.9391 17.7908C14.0208 17.7575 14.1016 17.7225 14.1833 17.6883ZM14.1516 18.1275C14.1507 18.1447 14.1499 18.1619 14.1491 18.1792L14.0283 18.2458L13.9391 18.2575L13.9425 18.2058C14.035 18.0833 14.0191 18.1242 14.1508 18.1275H14.1516ZM13.1516 9.37499C13.1315 9.35342 13.1113 9.33203 13.0908 9.31082C13.3016 9.19582 13.6341 9.14082 13.9608 9.11499C14.23 9.09249 14.495 9.08999 14.685 9.08582L14.7883 9.73082C14.5108 9.70082 14.2466 9.66416 13.9608 9.65166C13.7138 9.63942 13.4662 9.64834 13.2208 9.67832C13.1982 9.57711 13.1751 9.476 13.1516 9.37499ZM13.4633 18.0042L13.515 18.0958L13.465 18.2883L12.8791 18.3333C12.9416 18.1417 13.035 18.0492 13.1358 17.9033L13.4633 18.0042ZM12.74 17.2583C12.4733 17.2433 12.1083 17.0483 12.03 16.8283L12.8791 17.0442L12.74 17.2583ZM13.0383 17.2467L12.8791 17.2583L12.8841 17.2067L13.0608 17.0433C13.0525 17.1108 13.0458 17.1783 13.0383 17.2467ZM12.455 9.38249L12.7133 9.30082L12.8791 9.50916L12.7041 9.51582L12.4541 9.38249H12.455ZM12.4516 18.6158C12.4375 18.6625 12.425 18.71 12.4116 18.7575C12.391 18.7586 12.3704 18.7605 12.35 18.7633C12.3142 18.6916 12.2784 18.6199 12.2425 18.5483L12.455 18.57L12.4516 18.6158ZM12.5691 17.6883L13.0641 17.7883L13.0908 17.855L12.7066 18.3333L12.2425 18.265L12.5691 17.6883ZM16.2725 10.9483L16.3683 10.8075L16.4033 10.8067L16.67 10.8733L16.6966 10.9117L16.3991 11.0217C16.357 10.9971 16.3147 10.9727 16.2725 10.9483ZM16.8466 10.2533L16.6966 10.1617C16.8491 10.2175 16.7616 10.1542 16.8466 10.2533ZM16.7983 11.2367L16.6966 11.15L16.9091 11.0217L16.7983 11.2367ZM16.6966 12.7417L17.0266 12.8233C17.1158 12.8583 17.1133 12.8675 17.1208 12.9567C16.9791 12.9025 16.7425 12.865 16.6966 12.7417ZM16.73 12.1558L16.775 12.0975L16.9091 12.3117L16.6966 12.27L16.73 12.1558ZM12.4325 19.2317L12.455 19.2883L12.1691 19.3975L12.03 19.4083L12.0333 19.3792L12.1308 19.2267C12.2658 19.1642 12.2691 19.205 12.4325 19.2317ZM11.8183 8.43999C12.0033 8.57832 12.0516 8.74832 12.0225 9.30082C11.9008 9.14499 11.8266 8.81416 11.8183 8.44082V8.43999ZM11.94 8.01082L11.925 8.16666L11.8191 8.17416L11.9408 8.01082H11.94ZM11.8183 8.22582C11.8125 8.27749 11.8083 8.32916 11.8016 8.38082L11.6058 8.34499L11.7675 8.22916L11.8175 8.22582H11.8183ZM11.8183 20.6992L11.9233 19.6042L12.6666 19.4083L11.885 20.6592L11.8183 20.6992ZM11.8708 17.7558L11.985 17.6883C12.0891 17.8117 11.9958 17.9892 11.8975 18.1183C11.8158 18.0417 11.8066 17.9933 11.8283 17.8192L11.87 17.7558H11.8708ZM11.1816 17.6508L11.4258 17.2583L11.8175 17.4883C11.6841 17.6983 11.5483 17.9083 11.4133 18.1183C11.2916 18.01 11.2166 17.8508 11.1816 17.6517V17.6508ZM11.1816 19.335L11.5733 18.9783L11.7575 18.995L11.8183 19.095C11.8016 19.2 11.7866 19.3042 11.7716 19.4083L11.1816 19.335ZM10.5458 19.0433L11.0125 18.7633L11.3675 18.8192L11.3941 18.8683L11.02 19.1933C10.8333 19.1742 10.7091 19.1242 10.6116 19.0392L10.545 19.0433H10.5458ZM10.4833 18.6275L10.6541 18.5483L10.7275 18.5642L10.7575 18.5992L10.2633 18.7633L10.1216 18.7133L10.4833 18.6275ZM9.90912 18.4258L10.0341 18.1233C10.2658 18.0933 10.3208 18.2075 10.495 18.28L10.545 18.3567L10.2858 18.5342L10.075 18.5483L9.90912 18.4258ZM9.48412 19.3083L9.79329 18.7633C9.99829 18.7633 10.0233 18.78 10.1075 18.8883C10.145 18.9517 10.1125 18.9175 10.0308 18.9317L10.0116 19.1192L10.3333 19.1692C10.27 19.3267 10.26 19.3058 10.165 19.4058C9.84829 19.4225 9.70579 19.3625 9.48496 19.3083H9.48412ZM9.12746 18.5483L9.66662 18.7108L9.69662 18.775L9.35079 19.1933L8.84829 19.0283L9.12746 18.5483ZM7.04996 17.9667L7.05662 17.9025L7.35746 18.1342L7.38329 18.1958C6.75746 18.6792 7.71496 20.2542 8.80412 19.2333L9.27246 19.4217C9.09246 19.7425 8.78329 19.8692 8.45746 20.0508C7.67829 20.1158 6.58746 18.8433 7.04912 17.9667H7.04996ZM7.77662 18.1867L7.78829 18.3325C7.72996 18.2883 7.67162 18.2458 7.61496 18.2017L7.57579 18.1175L7.77579 18.1867H7.77662ZM8.84829 19.1L8.46079 19.4C7.69746 19.48 7.38829 18.9517 7.36329 18.3025L7.51246 18.1225L7.57746 18.1175C7.96162 18.42 8.30162 18.8817 8.82329 19.0342L8.84829 19.1ZM8.10912 15.9667C8.03996 15.9167 8.03579 15.8917 8.00079 15.8067L8.14579 15.255L8.31496 15.1067L8.42412 15.2667L8.10912 15.9667ZM8.00079 16.1525L8.33496 15.3617L8.40329 15.3217C8.55746 15.5933 8.78079 15.7167 8.84829 16.0858L8.34496 16.6117C8.18844 16.4951 8.0687 16.336 7.99996 16.1533L8.00079 16.1525ZM8.63662 16.8108L9.06162 16.3967L9.27246 16.8275C9.06053 16.8211 8.84859 16.8155 8.63662 16.8108ZM9.69662 12.465C9.49579 12.8942 9.22829 13.1858 9.06829 13.6017C8.99829 13.2242 9.41996 12.6817 9.55579 12.3483L9.62079 12.3108L9.69662 12.465ZM9.69662 11.2817C10.0125 11.1842 10.2241 11.0058 10.45 10.8058L10.5458 11.0925L10.2775 11.4508L9.69662 11.2825V11.2817ZM10.7575 11.3042L10.6425 11.4508L10.5458 11.4342L10.5475 11.4108L10.7408 11.2358L10.7575 11.3042ZM10.5908 10.3775L10.6241 10.3758L10.7575 10.6567L10.7075 10.8058C10.5133 10.7042 10.5208 10.5833 10.5908 10.3775ZM10.5508 16.6117L10.7466 16.7525L10.5458 16.6642C10.5469 16.6466 10.5486 16.6291 10.5508 16.6117ZM10.5475 16.8275L10.7575 16.9183C10.7562 16.9266 10.7551 16.935 10.7541 16.9433L10.3041 17.2575C10.175 17.1992 10.1591 17.0833 10.1208 16.9575L10.125 16.9308L10.5475 16.8275ZM9.91996 16.3967L10.1216 16.4783L10.0133 16.5408L9.90912 16.5525L9.91996 16.3967ZM9.90912 12.0967C10.1641 12.1683 10.0833 12.12 10.0941 12.3108C9.97746 12.2425 9.96912 12.21 9.90912 12.0958V12.0967ZM9.90912 15.9375L9.92662 15.7517C10.0258 15.8208 10.06 15.8617 10.1216 15.9667C10.0508 15.9568 9.97998 15.9471 9.90912 15.9375ZM10.3341 13.2517C10.2541 13.3542 10.2575 13.3267 10.1216 13.3858L10.2141 13.1708L10.3333 13.2517H10.3341ZM10.3341 12.3867L10.2008 12.5258C10.0675 12.4508 10.13 12.4808 10.19 12.3417L10.2691 12.3108L10.3333 12.3867H10.3341ZM10.3166 12.0208L10.1216 11.8808C10.2716 11.9383 10.2366 11.9033 10.3166 12.0208ZM9.90912 15.9667L10.1216 16.1358C10.0133 16.1333 9.95496 16.11 9.90912 15.9667ZM10.5458 15.9583L10.4591 15.9667L10.385 15.83L10.3333 15.7633L10.4483 15.7517C10.4808 15.8208 10.5125 15.89 10.5458 15.9583ZM10.4291 11.9767L10.3333 11.8817C10.4266 11.9467 10.365 11.8833 10.4283 11.9775L10.4291 11.9767ZM10.4416 15.5183L10.3333 15.2933L10.3791 15.1083L10.4058 15.1067L10.5458 15.5367C10.5111 15.5305 10.4764 15.5244 10.4416 15.5183ZM9.88579 18.0208L9.90912 18.0492L9.83329 18.3333C9.74404 18.2963 9.66545 18.2376 9.60462 18.1625C9.5438 18.0874 9.50267 17.9983 9.48496 17.9033L9.88579 18.0217V18.0208ZM9.27246 18.3333L9.48496 18.5217C9.34912 18.4617 9.34079 18.4642 9.27246 18.3333ZM9.63912 16.4267L9.66412 16.6125L9.48496 16.3975L9.63912 16.4267ZM9.42912 17.4325L9.27246 17.0433C9.45829 17.1142 9.60329 17.3267 9.69746 17.4733L9.42912 17.4325ZM9.59579 13.6042L9.64829 13.6025L9.49329 13.8175C9.46829 13.7642 9.49912 13.7133 9.58496 13.6508L9.59579 13.6033V13.6042ZM9.48496 15.4525L9.44246 15.5375L9.32079 15.4433C9.30466 15.4092 9.28855 15.375 9.27246 15.3408L9.43912 15.3225L9.48496 15.4525ZM7.99996 17.2583C8.42496 17.535 9.14746 17.7917 9.27246 18.3333C8.76857 18.0817 8.33224 17.7131 7.99996 17.2583ZM9.10246 17.05L9.27246 17.2583L8.84829 17.0433L9.10246 17.05ZM10.6558 17.6883L10.3333 17.3633L10.8975 16.8283L10.97 17.4175L10.6558 17.6883ZM10.97 18.0475L11.0258 17.9075L11.1008 17.9033L11.1816 18.1183L10.97 18.0475ZM11.2558 17.2583L11.1816 17.0433L11.3358 17.0717L11.2558 17.2583ZM10.97 10.0167L10.9716 9.99749C11.0416 9.98082 11.1116 9.96416 11.1816 9.94582L11.035 10.1608L10.97 10.0167ZM8.83079 14.4625L8.63662 14.0325C8.88579 14.0867 8.84496 14.2642 8.83079 14.4625ZM8.31162 14.6775C8.12996 14.5517 8.01412 14.3008 7.99996 14.0325C8.37246 14.12 8.35162 14.2667 8.42496 14.6067L8.31162 14.6775ZM8.09246 13.555C7.82162 13.2992 8.21579 12.2758 8.38912 12.04C8.48079 11.9242 8.59579 11.9267 8.74746 11.8817L8.84829 11.9075C8.59329 12.3592 8.42162 12.9742 8.36079 13.6025L8.09246 13.555ZM7.69662 17.0433L7.82579 17.2608L7.70996 17.5317L7.64329 17.6025C7.73829 17.6158 7.75996 17.5342 7.90162 17.4183C8.17662 17.8642 8.59662 18.2908 9.05996 18.5333L8.80746 18.9783L8.04079 18.485C7.95329 18.3225 8.07412 18.1358 7.93329 18.0367C7.80579 17.9467 7.64162 18.0767 7.51162 18.0375L7.15162 17.7075C7.25746 17.4708 7.35912 17.2392 7.56829 17.1183L7.69662 17.0433ZM6.96329 14.6717C6.99221 14.4572 7.03367 14.2446 7.08746 14.035L7.11579 14.0325L7.22662 14.6717L7.28496 15.005C7.45162 15.47 7.61996 15.9342 7.78829 16.3975C7.38496 16.1775 7.13579 15.6683 7.17162 14.9833C7.07496 15.2042 7.15496 15.5517 7.18662 15.7467C6.93912 15.5367 6.90746 15.1192 6.96246 14.6717H6.96329ZM6.59496 14.8925C6.55642 14.8111 6.53217 14.7237 6.52329 14.6342C6.51142 14.5136 6.51254 14.392 6.52662 14.2717L6.56329 14.195L6.72746 14.0325L6.63496 14.6333L6.59496 14.8917V14.8925ZM21.3633 17.0425L20.9391 16.8792L21.3508 16.8283L21.3633 17.0433V17.0425ZM10.1383 20.5425L10.2491 20.4842L10.1208 20.6983L10.1375 20.5433L10.1383 20.5425ZM6.93912 13.1725L6.75829 13.1558C6.53329 13.0817 6.32246 12.8192 6.30329 12.5275C6.64746 12.5583 6.76412 12.7217 6.93412 12.9208C6.93579 13.0042 6.93829 13.0883 6.93912 13.1725ZM6.91412 13.155C6.93912 12.6908 6.58496 12.4008 6.12496 12.4133C6.20329 11.7617 6.76996 11.4283 7.27496 11.2092L7.37246 11.2017C7.28829 12.02 7.35246 12.725 7.04662 13.4333C6.82079 13.955 6.01996 13.945 6.06329 14.75L6.06912 14.8167C6.18329 15.8867 7.34662 16.1042 7.50746 17.045C5.78246 17.9225 7.88496 21.61 9.24912 19.4442C9.49412 19.4792 9.71162 19.59 10.0158 19.4833C10.1575 19.405 10.185 19.3417 10.24 19.1783L10.7275 19.4308L10.7525 19.4925C10.3058 19.8392 9.99079 20.315 9.51079 20.64L9.55662 20.5083L9.43162 20.4858L9.36246 20.5233L9.29996 20.815C9.57412 21.095 10.405 20.0825 10.6483 19.8842C10.5108 20.365 10.1708 20.6125 9.98162 21.0525L10.04 21.1125C10.3983 20.8558 10.8375 20.1292 10.9041 19.5767L11.4408 19.6658C10.7683 20.575 9.04079 22.575 8.13246 23.1092C8.27079 22.675 8.49079 22.3433 8.60246 21.9867L8.53746 21.9917C8.51808 21.9716 8.49864 21.9516 8.47912 21.9317C8.25829 22.3667 7.89412 22.6725 7.82912 23.2592C7.86796 23.3173 7.9171 23.3679 7.97412 23.4083C9.05412 23.2283 10.8575 20.5142 11.7191 19.7725C11.4858 22.1142 10.2308 22.4792 9.14246 23.8975C10.1316 23.4042 10.7316 22.1458 11.5775 21.4475C11.4841 22.425 11.2516 24.6108 10.6666 25L10.7633 24.9925C11.42 24.5842 11.4583 22.905 11.6775 22.0467L11.7708 21.1442L12.7083 19.8275L12.7766 19.79C12.8816 20.1192 13.3566 20.4767 13.8708 20.3808L14.24 20.2258L15.1666 20.5725C15.2883 21.9058 15.2416 22.6533 14.3975 23.6683C15.26 23.2275 15.5766 21.5292 15.2891 20.6275C17.295 20.86 17.2141 20.1833 16.8341 18.7225L17.1866 18.7283C17.1216 18.6308 16.9458 18.7033 16.8116 18.6283C16.7508 18.5892 16.7625 18.5967 16.725 18.5383C17.2016 18.0008 18.35 18.535 18.1083 19.4275C18.4383 18.6875 17.7091 18.0292 17.0066 18.2942C17.3066 17.9383 17.67 17.6458 17.86 17.175L17.9283 17.1383L19.5783 18.8717L19.6758 18.8642L19.7508 18.7625C19.2258 18.1408 18.7016 17.5183 18.1783 16.8958L18.3466 16.8192C18.3838 16.7808 18.4295 16.7516 18.48 16.7341C18.5306 16.7166 18.5845 16.7112 18.6375 16.7183C18.6096 16.7045 18.5819 16.6906 18.5541 16.6767C19.3966 16.7608 20.4733 17.4633 21.3525 17.2367C21.4333 17.0958 21.4375 17.02 21.3883 16.8825C22.325 16.9058 24.01 16.5925 24.5466 16.1375C23.105 16.44 21.4816 16.5425 20.1583 16.3658L18.9858 16.2283L18.92 16.2333L19.2358 15.6667C20.2025 15.6483 22.7375 15.6242 23.25 15.0175L23.1366 14.8658L22.695 14.8025C22.664 14.8518 22.6468 14.9085 22.645 14.9667L22.995 15.0042C22.235 15.1958 20.1183 15.6 19.4275 15.3642C19.355 15.2758 19.4083 14.9692 19.4116 14.7483C19.4129 14.7088 19.4112 14.6693 19.4066 14.63C20.4 14.3333 21.1375 13.665 21.44 12.6567C21.6125 12.0792 21.4983 11.3208 21.8716 10.9608C22.11 10.9817 22.1583 11.0825 22.3333 11.1508C22.2408 11.0225 22.1083 10.9508 21.9425 10.8925L21.6316 11.1067C21.3475 11.2167 21.05 10.9292 20.5675 11.1533C20.1758 10.8183 19.955 10.2892 19.4258 10.0867L19.3716 9.99499L20.0133 9.37082C19.8033 9.54666 19.5891 9.75416 19.375 9.96249L18.945 9.76999L18.92 9.70749C19.41 9.36082 19.845 9.23249 20.4025 9.34249C20.4283 9.39416 20.4558 9.44499 20.4825 9.49666C20.4566 9.54082 20.4333 9.55332 20.4108 9.56582L20.2233 9.51582C20.3041 9.56332 20.3883 9.57832 20.4725 9.59332L20.5433 9.52416L20.5541 9.42749C20.4325 9.31916 20.395 9.24082 20.1558 9.23249L20.27 9.06416C19.9966 9.25249 19.4416 9.30249 19.17 9.46582L19.7983 8.97082L19.8733 8.86999L18.7108 9.56332C18.4625 9.54666 18.1983 9.42999 18.0641 9.29082C18.0427 9.29247 18.0213 9.29414 18 9.29582L19.38 8.36249L19.3575 8.26832C18.8341 8.57332 18.31 8.87832 17.7875 9.18416L17.2858 9.06082L17.3325 8.60999L20.93 5.78499L20.9941 5.77999L20.9433 5.65582C20.81 5.59249 20.2625 6.03666 20.0558 6.16916C19.2591 6.67999 18.555 7.31582 17.7716 7.77749C18.095 7.36666 18.6866 6.95749 18.785 6.35916L18.6266 6.33916L18.38 6.54916L18.6483 6.43249C18.475 6.95999 17.69 7.90166 17.2466 8.19999L17.195 8.07582C17.4833 7.59082 17.7675 6.93832 17.6341 6.31582L17.3925 6.17416L17.1333 6.19332C17.2991 6.25916 17.4116 6.27499 17.5333 6.35582C17.6108 6.95916 17.3141 7.36749 17.1541 7.85582L17.0858 7.89249C16.9791 7.69499 16.9858 7.59999 16.7666 7.56416L16.7475 7.43749L16.8975 7.23416L17.0008 7.16249C17.0358 7.22916 17.0375 7.20499 17.0483 7.31916C17.079 7.2701 17.096 7.21369 17.0975 7.15582L16.975 7.10082L16.6508 7.44416C16.38 7.26332 16.0816 7.07332 15.7008 7.00249C15.9166 6.55499 16.5725 5.83582 16.2341 5.26832C15.8208 4.57832 14.41 5.37332 13.8933 5.92082C13.8333 5.98187 13.7813 6.05018 13.7383 6.12416C13.7894 6.08349 13.8411 6.04348 13.8933 6.00416C14.4033 5.62416 15.7608 4.71416 16.055 5.44166C16.3633 5.84749 15.7725 6.62832 15.6116 6.94582C15.0616 6.88999 14.4866 6.83749 13.895 6.84916C13.2722 6.85459 12.6538 6.95404 12.0608 7.14416C11.7608 7.24332 10.4808 8.00999 10.4316 7.99999L9.84829 7.43499L8.62829 6.82249L8.62162 6.88666L8.54996 6.95582L10.1133 8.27916L9.87496 8.42499C9.23162 7.93749 8.78829 7.64166 7.83079 7.39249L7.66912 7.40499C8.22829 7.78999 8.79162 8.14249 9.35412 8.49582L9.46662 8.64749C9.06496 8.81666 8.89496 9.16832 8.55579 9.38666C8.02579 9.13332 7.53496 8.90332 6.89246 8.70916L6.84746 8.84082L8.05079 9.61582L8.11579 9.61082L7.90829 9.75416C7.81246 10.0767 7.62496 10.4508 7.46829 10.9058C6.86829 11.3942 6.09079 11.365 5.96996 12.36C5.77829 12.4125 5.64329 12.4292 5.46829 12.5575L5.45496 12.6867C5.56496 12.84 6.53912 13.2525 6.77162 13.2925L6.91496 13.1542L6.91412 13.155ZM14.0308 6.27499L14.12 6.29166L14.0008 6.27666C13.98 6.27666 13.9591 6.27832 13.9391 6.27916C14.0333 6.10416 14.31 6.06082 14.5758 6.07999L14.5575 6.20666L14.0375 6.23249L14.0308 6.27416V6.27499ZM14.4025 6.50582L14.6525 6.42416C14.7608 6.24416 14.8225 6.05332 14.7675 5.87916C14.51 5.82832 14.3616 5.89082 14.1208 5.99249C14.077 6.06375 14.0333 6.13514 13.99 6.20666L13.94 6.28999C13.9554 6.30788 13.9721 6.32459 13.99 6.33999C14.0716 6.40666 14.17 6.42999 14.3508 6.41499C14.4008 6.49999 14.3425 6.46249 14.2533 6.48582L14.4033 6.50582H14.4025ZM20.5716 8.44166L20.3033 8.49166L20.4683 8.47999L20.6575 8.56166L20.3708 9.08666C20.5183 8.91249 20.665 8.78916 20.7275 8.52499L20.5716 8.44166ZM19.03 16.8292C18.9633 16.71 18.8908 16.6317 18.8183 16.6133C18.8825 16.6742 18.9566 16.7458 19.03 16.8292ZM18.1816 19.4092L17.97 19.5325L18.1325 19.5175L18.1825 19.4092H18.1816ZM19.03 16.8292C19.2458 17.0725 19.4075 17.5392 19.3608 17.9042C19.6058 17.375 19.3266 17.045 19.03 16.8292Z" />
</symbol>

<symbol id="i-vk" viewBox="0 0 30 30" xmlns="http://www.w3.org/2000/svg">
   <circle cx="15" cy="15" r="15" fill="currentColor" />
   <path d="M24.5417 9.95669C24.68 9.50169 24.5417 9.16669 23.8792 9.16669H21.6917C21.135 9.16669 20.8783 9.45585 20.7392 9.77502C20.7392 9.77502 19.6267 12.4384 18.0508 14.1684C17.5408 14.67 17.3092 14.8292 17.0308 14.8292C16.8917 14.8292 16.6825 14.67 16.6825 14.2142V9.95669C16.6825 9.41002 16.5292 9.16669 16.0658 9.16669H12.6258C12.2783 9.16669 12.0692 9.42002 12.0692 9.66085C12.0692 10.1784 12.8575 10.2984 12.9383 11.755V14.92C12.9383 15.6142 12.8108 15.74 12.5325 15.74C11.7908 15.74 9.98667 13.0642 8.91583 10.0025C8.70833 9.40669 8.49833 9.16669 7.93917 9.16669H5.75C5.125 9.16669 5 9.45585 5 9.77502C5 10.3434 5.74167 13.1667 8.45417 16.9009C10.2625 19.4509 12.8083 20.8334 15.1275 20.8334C16.5183 20.8334 16.69 20.5267 16.69 19.9975V18.07C16.69 17.4559 16.8217 17.3334 17.2625 17.3334C17.5875 17.3334 18.1433 17.4934 19.4417 18.7225C20.925 20.18 21.1692 20.8334 22.0042 20.8334H24.1917C24.8167 20.8334 25.13 20.5267 24.95 19.92C24.7517 19.3167 24.0433 18.4409 23.1042 17.4017C22.5942 16.81 21.8292 16.1725 21.5967 15.8534C21.2725 15.4442 21.365 15.2617 21.5967 14.8975C21.5967 14.8975 24.2633 11.2092 24.5408 9.95669H24.5417Z" />
</symbol>

<symbol id="i-vue" xmlns="http://www.w3.org/2000/svg"  viewBox="0 0 48 48">
	<polygon points="23.987,17 18.734,8 2.974,8 23.987,44 45,8 29.24,8"/><polygon fill="rgba(0, 0, 0, 0.3)" points="29.24,8 23.987,17 18.734,8 11.146,8 23.987,30 36.828,8"/>
</symbol>

<symbol id="i-linkedin" xmlns="http://www.w3.org/2000/svg" viewBox="0 0 48 48">
	<path fill="currentColor" d="M42,37c0,2.762-2.238,5-5,5H11c-2.761,0-5-2.238-5-5V11c0-2.762,2.239-5,5-5h26c2.762,0,5,2.238,5,5	V37z"/><path d="M30,37V26.901c0-1.689-0.819-2.698-2.192-2.698c-0.815,0-1.414,0.459-1.779,1.364	c-0.017,0.064-0.041,0.325-0.031,1.114L26,37h-7V18h7v1.061C27.022,18.356,28.275,18,29.738,18c4.547,0,7.261,3.093,7.261,8.274	L37,37H30z M11,37V18h3.457C12.454,18,11,16.528,11,14.499C11,12.472,12.478,11,14.514,11c2.012,0,3.445,1.431,3.486,3.479	C18,16.523,16.521,18,14.485,18H18v19H11z" opacity=".05"/><path d="M30.5,36.5v-9.599c0-1.973-1.031-3.198-2.692-3.198c-1.295,0-1.935,0.912-2.243,1.677	c-0.082,0.199-0.071,0.989-0.067,1.326L25.5,36.5h-6v-18h6v1.638c0.795-0.823,2.075-1.638,4.238-1.638	c4.233,0,6.761,2.906,6.761,7.774L36.5,36.5H30.5z M11.5,36.5v-18h6v18H11.5z M14.457,17.5c-1.713,0-2.957-1.262-2.957-3.001	c0-1.738,1.268-2.999,3.014-2.999c1.724,0,2.951,1.229,2.986,2.989c0,1.749-1.268,3.011-3.015,3.011H14.457z" opacity=".07"/><path  d="M12,19h5v17h-5V19z M14.485,17h-0.028C12.965,17,12,15.888,12,14.499C12,13.08,12.995,12,14.514,12	c1.521,0,2.458,1.08,2.486,2.499C17,15.887,16.035,17,14.485,17z M36,36h-5v-9.099c0-2.198-1.225-3.698-3.192-3.698	c-1.501,0-2.313,1.012-2.707,1.99C24.957,25.543,25,26.511,25,27v9h-5V19h5v2.616C25.721,20.5,26.85,19,29.738,19	c3.578,0,6.261,2.25,6.261,7.274L36,36L36,36z" />
</symbol>

<symbol id="i-webpack" xmlns="http://www.w3.org/2000/svg" viewBox="0 0 128 128">
	<path d="M117.29,98.1,66.24,127V104.49L98,87,117.29,98.1Zm3.5-3.16V34.55L102.11,45.35V84.16l18.67,10.77ZM10.71,98.1l51,28.88V104.49L29.94,87Zm-3.5-3.16V34.55L25.89,45.35V84.16Zm2.19-64.3L61.76,1V22.76L28.21,41.21l-.27.15Zm109.18,0L66.24,1V22.76L99.79,41.2l.27.15,18.54-10.71Z"/><path fill="rgba(0, 0, 0, 0.7)" d="M61.76,99.37,30.37,82.1V47.92L61.76,66Zm4.48,0L97.63,82.12V47.92L66.24,66ZM32.5,44,64,26.66,95.5,44,64,62.16,32.5,44Z"/>
</symbol>

<symbol id="i-github" fill="none" xmlns="http://www.w3.org/2000/svg" viewBox="0 0 24 24">
	<path d="M19 0h-14c-2.761 0-5 2.239-5 5v14c0 2.761 2.239 5 5 5h14c2.762 0 5-2.239 5-5v-14c0-2.761-2.238-5-5-5zm-4.466 19.59c-.405.078-.534-.171-.534-.384v-2.195c0-.747-.262-1.233-.55-1.481 1.782-.198 3.654-.875 3.654-3.947 0-.874-.312-1.588-.823-2.147.082-.202.356-1.016-.079-2.117 0 0-.671-.215-2.198.82-.64-.18-1.324-.267-2.004-.271-.68.003-1.364.091-2.003.269-1.528-1.035-2.2-.82-2.2-.82-.434 1.102-.16 1.915-.077 2.118-.512.56-.824 1.273-.824 2.147 0 3.064 1.867 3.751 3.645 3.954-.229.2-.436.552-.508 1.07-.457.204-1.614.557-2.328-.666 0 0-.423-.768-1.227-.825 0 0-.78-.01-.055.487 0 0 .525.246.889 1.17 0 0 .463 1.428 2.688.944v1.489c0 .211-.129.459-.528.385-3.18-1.057-5.472-4.056-5.472-7.59 0-4.419 3.582-8 8-8s8 3.581 8 8c0 3.533-2.289 6.531-5.466 7.59z" fill="currentColor"/>
</symbol>

<symbol id="i-telegram" xmlns="http://www.w3.org/2000/svg" enable-background="new 0 0 24 24" viewBox="0 0 24 24">
	<circle cx="12" cy="12" r="12" fill="currentColor"/>
	<path d="m5.491 11.74 11.57-4.461c.537-.194 1.006.131.832.943l.001-.001-1.97 9.281c-.146.658-.537.818-1.084.508l-3-2.211-1.447 1.394c-.16.16-.295.295-.605.295l.213-3.053 5.56-5.023c.242-.213-.054-.333-.373-.121l-6.871 4.326-2.962-.924c-.643-.204-.657-.643.136-.953z"/>
</symbol>
</svg>
