<?xml version="1.0" encoding="utf-8"?>
<svg xmlns="http://www.w3.org/2000/svg" xmlns:xlink="http://www.w3.org/1999/xlink">

<symbol id="i-html" viewBox="-40 0 512 512.001" xmlns="http://www.w3.org/2000/svg"><path d="m73.003906 195.183594h-24.261718v29.425781c0 2.242187-2.535157 3.410156-5.164063 3.410156-2.535156 0-5.167969-1.167969-5.167969-3.410156v-64.507813c0-2.339843 2.632813-3.3125 5.167969-3.3125 2.628906 0 5.164063.972657 5.164063 3.3125v26.894532h24.261718v-26.894532c0-2.339843 2.632813-3.3125 5.167969-3.3125 2.628906 0 5.164063.972657 5.164063 3.3125v64.507813c0 2.242187-2.535157 3.410156-5.164063 3.410156-2.535156 0-5.167969-1.167969-5.167969-3.410156zm0 0"/><path d="m134.976562 156.789062c2.335938 0 3.410157 2.339844 3.410157 4.578126 0 2.535156-1.167969 4.875-3.410157 4.875h-15.007812v58.367187c0 2.242187-2.628906 3.410156-5.164062 3.410156-2.632813 0-5.164063-1.167969-5.164063-3.410156v-58.367187h-15.105469c-2.144531 0-3.410156-2.242188-3.410156-4.777344 0-2.242188 1.074219-4.675782 3.410156-4.675782zm0 0"/><path d="m176.871094 202.003906c-1.070313 1.753906-2.4375 2.335938-3.800782 2.335938-1.265624 0-2.628906-.582032-3.503906-2.335938l-13.058594-24.753906v47.359375c0 2.242187-2.535156 3.410156-5.167968 3.410156-2.53125 0-5.164063-1.167969-5.164063-3.410156v-62.65625c0-3.800781 2.535157-5.164063 5.164063-5.164063 3.703125 0 5.75 1.265626 8.1875 5.847657l13.640625 25.820312 13.839843-25.820312c2.433594-4.582031 4.382813-5.847657 8.085938-5.847657 2.730469 0 5.164062 1.363282 5.164062 5.164063v62.65625c0 2.242187-2.53125 3.410156-5.164062 3.410156-2.53125 0-5.164062-1.167969-5.164062-3.410156v-46.773437zm0 0"/><path d="m217.699219 228.019531c-2.242188 0-4.582031-1.167969-4.582031-3.410156v-64.507813c0-2.339843 2.632812-3.3125 5.167968-3.3125 2.628906 0 5.164063.972657 5.164063 3.3125v58.757813h25.335937c2.046875 0 3.117188 2.242187 3.117188 4.582031 0 2.242188-1.070313 4.578125-3.117188 4.578125zm0 0"/><path d="m430.527344 105.644531c-7.644532-7.070312-15.285156-14.140625-22.929688-21.210937-19.414062-17.960938-38.824218-35.917969-58.234375-53.878906-7.621093-7.046876-15.238281-14.09375-22.855469-21.140626-3.382812-3.128906-8.175781-9.320312-12.996093-9.41015575-.039063 0-.078125-.00390625-.117188-.00390625h-241.738281c-15.164062 0-27.503906 12.339844-27.503906 27.503906v94.8125h-17.722656c-14.574219 0-26.429688 11.855469-26.429688 26.429688v89.597656c0 14.570312 11.855469 26.425781 26.429688 26.425781h17.722656v56.035157c0 4.140624 3.359375 7.5 7.5 7.5 4.144531 0 7.503906-3.359376 7.503906-7.5v-56.035157h199.5625c14.570312 0 26.425781-11.855469 26.425781-26.425781v-89.597656c0-14.574219-11.855469-26.429688-26.425781-26.429688h-84.257812c-4.140626 0-7.5 3.359375-7.5 7.503906 0 4.140626 3.359374 7.5 7.5 7.5h84.257812c6.296875 0 11.421875 5.125 11.421875 11.425782v89.597656c0 6.296875-5.125 11.421875-11.421875 11.421875h-232.289062c-6.300782 0-11.425782-5.125-11.425782-11.421875v-89.597656c0-6.300782 5.125-11.425782 11.425782-11.425782h102.355468c4.144532 0 7.503906-3.359374 7.503906-7.5 0-4.144531-3.359374-7.503906-7.503906-7.503906h-69.628906v-94.8125c0-6.894531 5.605469-12.5 12.5-12.5h234.238281v76.425782c0 15.167968 12.335938 27.503906 27.503907 27.503906h84.53125v365.5625c0 6.894531-5.605469 12.503906-12.5 12.503906h-333.773438c-6.894531 0-12.5-5.609375-12.5-12.503906v-116.019532c0-4.140624-3.359375-7.5-7.503906-7.5-4.140625 0-7.5 3.359376-7.5 7.5v116.019532c0 15.167968 12.339844 27.503906 27.503906 27.503906h333.773438c15.164062 0 27.503906-12.335938 27.503906-27.503906v-373.347656c0-2.089844-.875-4.085938-2.40625-5.503907zm-97.128906-1.714843c-6.894532 0-12.503907-5.605469-12.503907-12.5v-66.738282l85.421875 79.238282zm0 0"/><path d="m197.222656 292.429688c-2.925781-2.929688-7.675781-2.929688-10.605468 0l-47.007813 47.007812c-2.929687 2.929688-2.929687 7.679688 0 10.609375l47.007813 47.007813c1.464843 1.464843 3.382812 2.195312 5.304687 2.195312 1.917969 0 3.839844-.730469 5.300781-2.195312 2.929688-2.929688 2.929688-7.679688 0-10.609376l-41.703125-41.703124 41.703125-41.707032c2.929688-2.925781 2.929688-7.675781 0-10.605468zm0 0"/><path d="m279.859375 397.054688c1.464844 1.464843 3.386719 2.195312 5.304687 2.195312 1.921876 0 3.839844-.730469 5.304688-2.195312l47.007812-47.007813c2.929688-2.929687 2.929688-7.679687 0-10.609375l-47.007812-47.007812c-2.929688-2.929688-7.679688-2.929688-10.609375 0-2.925781 2.929687-2.925781 7.679687 0 10.605468l41.707031 41.707032-41.707031 41.703124c-2.929687 2.929688-2.929687 7.679688 0 10.609376zm0 0"/><path d="m220.074219 399.253906c2.992187 0 5.824219-1.804687 6.984375-4.761718l36.933594-94.015626c1.515624-3.855468-.382813-8.210937-4.238282-9.726562-3.855468-1.515625-8.210937.382812-9.726562 4.238281l-36.933594 94.019531c-1.515625 3.855469.382812 8.207032 4.238281 9.722657.902344.355469 1.828125.523437 2.742188.523437zm0 0"/></symbol>
<symbol id="i-html5" xmlns="http://www.w3.org/2000/svg" xmlns:xlink="http://www.w3.org/1999/xlink" x="0px" y="0px"
	 viewBox="0 0 512 512" style="enable-background:new 0 0 512 512;" xml:space="preserve">
<g>
	<g>
		<g>
			<path d="M123.377,258.155c0.874,9.799,9.264,17.475,19.102,17.475h169.177l-4.589,51.175c-0.136,0.469-0.806,1.267-1.244,1.482
				l-44.73,12.088c-2.038,0.551-3.904,1.055-5.308,1.432c-1.402-0.377-3.268-0.88-5.304-1.43l-44.651-12.057
				c-0.437-0.214-1.104-1.008-1.238-1.475l-2.408-26.972c-0.877-9.797-9.268-17.471-19.103-17.471h-38.168
				c-5.01,0-9.789,2.085-13.114,5.719c-3.324,3.635-4.976,8.579-4.531,13.568l6.155,69.078c0.773,8.676,7.686,16.973,16.077,19.3
				l95.613,26.531c7.166,1.988,9.377,2.602,10.918,2.602c0.687,0,1.242-0.122,2.045-0.299c0.32-0.072,0.407-0.091,8.566-2.351
				l95.512-26.484c7.326-2.033,15.039-7.679,15.753-15.708l13.851-155.126c0.431-4.761-1.139-9.484-4.311-12.958
				c-3.171-3.47-7.727-5.461-12.502-5.461H193.343l-3.161-35.323h196.954c5.273,0,9.676-4.019,10.156-9.269l4.316-47.13
				c0.415-4.672-1.109-9.162-4.292-12.64c-3.351-3.661-8.245-5.763-13.426-5.763c-0.001,0-0.003,0-0.004,0H127.796
				c-5.185,0-10.082,2.1-13.433,5.763c-3.181,3.479-4.705,7.965-4.29,12.641L123.377,258.155z M380.942,111.086l-3.115,34.005
				H187.246c-5.009,0-9.787,2.084-13.111,5.718c-3.324,3.635-4.976,8.579-4.53,13.572l3.52,39.353
				c0.872,9.8,9.265,17.477,19.105,17.477h178.873l-13.28,148.765c-0.32,0.159-0.701,0.317-1.119,0.432l-95.509,26.483
				c-2.063,0.572-3.96,1.096-5.384,1.489c-1.284-0.348-3.058-0.833-5.243-1.439l-95.545-26.511
				c-0.455-0.222-1.151-1.058-1.288-1.547l-5.887-66.084h34.121l2.315,25.929c0.775,8.705,7.723,16.987,16.159,19.265l44.723,12.077
				c9.241,2.495,9.241,2.495,10.623,2.495c1.379,0,1.379,0,10.625-2.498l44.801-12.106c8.435-2.277,15.383-10.557,16.164-19.258
				l4.859-54.176c0.448-4.99-1.203-9.938-4.525-13.573c-3.323-3.635-8.103-5.721-13.113-5.721H143.595L130.73,111.086H380.942z"/>
			<path d="M478.2,5.723C474.876,2.086,470.093,0,465.083,0H46.917c-5.008,0-9.786,2.084-13.11,5.717
				c-3.325,3.634-4.977,8.578-4.533,13.57L67.366,446.53c0.772,8.675,7.683,16.974,16.076,19.305l161.635,44.88
				c3.083,0.857,6.866,1.285,10.65,1.285c3.776,0,7.553-0.427,10.637-1.281l162.127-44.953c8.395-2.327,15.308-10.624,16.082-19.298
				l38.153-427.173C483.173,14.305,481.524,9.359,478.2,5.723z M424.262,444.582c-0.14,0.499-0.861,1.358-1.221,1.527
				l-162.124,44.952c-2.575,0.713-7.814,0.714-10.383-0.001L88.993,446.212c-0.464-0.204-1.206-1.095-1.31-1.49L49.852,20.398
				h412.294L424.262,444.582z"/>
		</g>
	</g>
</g>
<g>
	<g>
		<path d="M190.727,34.679H77.517c-5.632,0-10.199,4.567-10.199,10.199c0,5.632,4.567,10.199,10.199,10.199h113.21
			c5.633,0,10.199-4.567,10.199-10.199C200.926,39.246,196.359,34.679,190.727,34.679z"/>
	</g>
</g>
<g>
	<g>
		<path d="M232.543,34.679h-4.08c-5.632,0-10.199,4.567-10.199,10.199c0,5.632,4.567,10.199,10.199,10.199h4.08
			c5.633,0,10.199-4.567,10.199-10.199C242.742,39.246,238.175,34.679,232.543,34.679z"/>
	</g>
</g>
<g>
</g>
<g>
</g>
<g>
</g>
<g>
</g>
<g>
</g>
<g>
</g>
<g>
</g>
<g>
</g>
<g>
</g>
<g>
</g>
<g>
</g>
<g>
</g>
<g>
</g>
<g>
</g>
<g>
</g>
</symbol>
<symbol id="i-css" viewBox="-60 0 512 512.00002" xmlns="http://www.w3.org/2000/svg"><path d="m384.210938 431.613281c4.179687 0 7.570312-3.390625 7.570312-7.570312v-401.25c0-12.566407-10.222656-22.792969-22.789062-22.792969-105.628907 0-235.15625 0-347.160157 0-12.039062 0-21.832031 9.792969-21.832031 21.832031v225.730469c0 4.1875 3.390625 7.570312 7.570312 7.570312 4.179688 0 7.570313-3.382812 7.570313-7.570312v-51.808594h194.304687c4.183594 0 7.574219-3.390625 7.574219-7.570312 0-4.179688-3.390625-7.570313-7.574219-7.570313h-194.304687v-158.78125c0-3.695312 2.996094-6.691406 6.691406-6.691406h299.757813c3.695312 0 6.691406 2.996094 6.691406 6.691406v158.78125h-88.550781c-4.183594 0-7.570313 3.390625-7.570313 7.570313 0 4.179687 3.386719 7.570312 7.570313 7.570312h88.550781v126.359375h-313.140625v-44.269531c0-4.179688-3.390625-7.570312-7.570313-7.570312-4.179687 0-7.570312 3.390624-7.570312 7.570312v180.941406c0 12.042969 9.792969 21.84375 21.832031 21.84375h4.390625v8.578125c0 12.566407 10.226563 22.792969 22.804688 22.792969h319.964844c12.566406 0 22.789062-10.226562 22.789062-22.792969v-34.882812c0-4.179688-3.390625-7.570313-7.570312-7.570313-4.179688 0-7.570313 3.390625-7.570313 7.570313v34.882812c0 4.21875-3.429687 7.652344-7.648437 7.652344h-319.964844c-4.230469 0-7.664063-3.433594-7.664063-7.652344v-8.578125h172.03125c4.261719 0 6.355469-2.367187 9.253907-5.25 21.253906-20.546875 104.613281-101.160156 117.886718-114 1.835938-1.777344 2.886719-4.257812 2.886719-6.8125 0-12.210937 0-320.179687 0-332.734375 0-2.332031-.363281-4.582031-1.050781-6.691406h26.621094c4.21875 0 7.648437 3.433594 7.648437 7.652344v401.25c0 4.179687 3.390625 7.570312 7.570313 7.570312zm-162.480469 23.589844v-85.707031c0-3.613282 2.9375-6.550782 6.550781-6.550782h88.855469c-180.363281 174.421876 5.441406-5.261718-95.40625 92.257813zm106.550781-107.398437h-100c-11.960938 0-21.691406 9.730468-21.691406 21.691406v95.992187c-9.390625 0-176.195313 0-184.757813 0-3.695312 0-6.691406-3.007812-6.691406-6.703125v-121.53125h313.140625zm0 0"/><path d="m249.695312 153.941406c4.328126 0 8.523438-1.277344 12.128907-3.691406l47.148437-31.617188c13.03125-8.734374 12.851563-28.007812-.402344-36.472656 0 0 0 0-.003906 0l-47.148437-30.109375c-10.125-6.46875-23.632813-3.492187-30.101563 6.640625-6.46875 10.128906-3.492187 23.632813 6.640625 30.097656l19.078125 12.1875-19.488281 13.066407c-17.960937 12.039062-9.15625 39.902343 12.148437 39.898437zm-3.71875-27.324218 29.097657-19.511719c4.523437-3.035157 4.457031-9.730469-.144531-12.667969l-28.828126-18.410156c-3.09375-1.976563-4.003906-6.097656-2.03125-9.191406 1.972657-3.082032 6.089844-4.007813 9.195313-2.027344l47.152344 30.109375c4.035156 2.578125 4.109375 8.464843.121093 11.140625-49.125 32.476562-47.265624 32.742187-50.847656 32.742187-6.539062 0-9.1875-8.515625-3.714844-12.183593zm0 0"/><path d="m112.109375 58.6875c-6.464844-10.128906-19.964844-13.105469-30.101563-6.640625l-47.148437 30.113281c-13.246094 8.457032-13.445313 27.730469-.40625 36.472656l47.148437 31.617188c3.605469 2.414062 7.800782 3.691406 12.132813 3.691406 21.34375 0 30.078125-27.875 12.144531-39.898437l-19.488281-13.066407 19.082031-12.1875c10.128906-6.46875 13.105469-19.972656 6.636719-30.101562zm-14.785156 17.339844-28.832031 18.410156c-4.59375 2.9375-4.671876 9.632812-.140626 12.671875 28.699219 19.980469 30.988282 19.023437 31.917969 23.75 1.136719 5.765625-5.292969 10.125-10.234375 6.8125l-47.152344-31.613281c-3.996093-2.679688-3.910156-8.5625.125-11.136719 49.019532-30.855469 47.097657-31.15625 50.722657-31.15625 6.652343 0 9.171875 8.699219 3.59375 12.261719zm0 0"/><path d="m177.316406 57.371094-46.125 61.726562c-3.484375 4.664063-4.945312 10.40625-4.113281 16.167969 2.761719 19.074219 27.402344 25.492187 39.03125 9.925781l46.125-61.726562c3.484375-4.664063 4.945313-10.40625 4.113281-16.167969-2.796875-19.316406-27.535156-25.316406-39.03125-9.925781zm-23.335937 78.757812c-3.542969 4.742188-11.074219 2.800782-11.917969-3.03125-.746094-5.148437.671875-3.050781 47.378906-66.664062 3.523438-4.707032 11.070313-2.847656 11.917969 3.03125.746094 5.148437-.664063 3.046875-47.378906 66.664062zm0 0"/><path d="m109.480469 233.722656c9.421875 0 9.753906 7.09375 9.863281 9.976563.222656 3.992187 3.992188 5.210937 8.644531 5.210937 5.875 0 8.648438-1.554687 8.648438-8.203125 0-14.078125-11.972657-22.058593-27.824219-22.058593-14.519531 0-26.601562 7.09375-26.601562 26.160156v29.375c0 19.066406 12.082031 26.160156 26.601562 26.160156 15.851562 0 27.824219-8.425781 27.824219-23.167969 0-6.652343-2.773438-8.203125-8.757813-8.203125-4.433594 0-8.203125 1.109375-8.535156 5.210938-.332031 4.324218-.886719 11.085937-9.753906 11.085937-6.429688 0-10.089844-3.546875-10.089844-11.085937v-29.375c.003906-7.539063 3.660156-11.085938 9.980469-11.085938zm0 0"/><path d="m170.21875 285.265625c-10.308594 0-13.636719-8.199219-18.84375-8.199219-4.210938 0-7.539062 5.539063-7.539062 9.308594 0 7.316406 12.195312 14.410156 26.714843 14.410156 16.070313 0 27.710938-8.644531 27.710938-24.605468 0-27.933594-35.136719-25.828126-35.136719-36.914063 0-3.433594 3.214844-6.648437 11.082031-6.648437 9.089844 0 11.195313 4.210937 15.1875 4.210937 4.878907 0 6.875-6.097656 6.875-9.089844 0-8.644531-16.183593-9.753906-22.0625-9.753906-13.855469 0-28.375 6.316406-28.375 22.945313 0 25.9375 35.136719 23.609374 35.136719 37.023437.003906 5.320313-5.652344 7.3125-10.75 7.3125zm0 0"/><path d="m231.621094 285.265625c-10.308594 0-13.632813-8.199219-18.84375-8.199219-4.210938 0-7.539063 5.539063-7.539063 9.308594 0 7.316406 12.195313 14.410156 26.71875 14.410156 16.070313 0 27.710938-8.644531 27.710938-24.605468 0-27.933594-35.140625-25.828126-35.140625-36.914063 0-3.433594 3.214844-6.648437 11.085937-6.648437 9.089844 0 11.195313 4.210937 15.183594 4.210937 4.878906 0 6.875-6.097656 6.875-9.089844 0-8.644531-16.183594-9.753906-22.058594-9.753906-13.859375 0-28.378906 6.316406-28.378906 22.945313 0 25.9375 35.140625 23.609374 35.140625 37.023437 0 5.320313-5.652344 7.3125-10.753906 7.3125zm0 0"/></symbol>
<symbol id="i-css3" xmlns="http://www.w3.org/2000/svg" xmlns:xlink="http://www.w3.org/1999/xlink" x="0px" y="0px"
	 viewBox="0 0 512 512" style="enable-background:new 0 0 512 512;" xml:space="preserve">
<g>
	<g>
		<path d="M475.803,5.184C472.763,1.888,468.507,0,463.995,0h-416c-4.48,0-8.768,1.888-11.808,5.184
			c-3.008,3.328-4.512,7.744-4.128,12.192l37.888,432c0.576,6.656,5.184,12.192,11.584,14.016l170.112,48
			c1.44,0.416,2.88,0.608,4.352,0.608c1.472,0,2.944-0.192,4.352-0.576l170.048-47.968c6.4-1.824,10.976-7.392,11.584-14.016
			l37.952-432.032C480.348,12.928,478.843,8.512,475.803,5.184z M411.099,435.616L255.995,479.36l-155.136-43.776L65.467,32h381.056
			L411.099,435.616z"/>
	</g>
</g>
<g>
	<g>
		<path d="M379.675,101.056c-3.008-3.232-7.232-5.056-11.68-5.056h-224c-8.832,0-16,7.168-16,16c0,8.832,7.168,16,16,16h206.912
			l-14.176,212.224l-80.736,26.912l-80-26.656V320c0-8.832-7.168-16-16-16c-8.832,0-16,7.168-16,16v32
			c0,6.88,4.416,12.992,10.944,15.2l96,32c1.632,0.512,3.36,0.8,5.056,0.8c1.728,0,3.392-0.288,5.056-0.832l96-32
			c6.176-2.048,10.464-7.616,10.912-14.112l16-240C384.251,108.64,382.683,104.288,379.675,101.056z"/>
	</g>
</g>
<g>
	<g>
		<path d="M359.355,224h-211.52c-8.832,0-16,7.168-16,16c0,8.832,7.168,16,16,16h211.52c8.864,0,16-7.168,16-16
			C375.355,231.168,368.187,224,359.355,224z"/>
	</g>
</g>
<g>
</g>
<g>
</g>
<g>
</g>
<g>
</g>
<g>
</g>
<g>
</g>
<g>
</g>
<g>
</g>
<g>
</g>
<g>
</g>
<g>
</g>
<g>
</g>
<g>
</g>
<g>
</g>
<g>
</g>
</symbol>
<symbol id="i-pug" enable-background="new 0 0 512 512" viewBox="0 0 512 512" xmlns="http://www.w3.org/2000/svg"><g><path d="m430.918 60.54c-15.424-15.466-37.933-20.971-58.756-14.36l-42.206 13.398c-73.648-18.713-131.234-5.143-148.31-.126l-41.808-13.272c-20.817-6.61-43.333-1.106-58.756 14.36l-81.082 81.309s17.351 56.89 64.572 92.789l-14.492 62.752-.148.722c-4.167 23.164 1.591 47.21 15.797 65.975 12.163 16.065 29.735 27.214 49.239 31.518l8.938 21.824c9.726 23.75 32.593 39.095 58.258 39.095 8.09 0 15.9-1.551 23.112-4.396 15.461 10.648 33.862 16.443 52.81 16.443 18.732 0 36.973-5.681 52.337-16.119 6.98 2.64 14.503 4.072 22.284 4.072 25.664 0 48.532-15.346 58.257-39.095l9.006-21.989c19.202-4.422 36.478-15.495 48.483-31.353 14.207-18.764 19.965-42.811 15.798-65.976l-12.026-66.841c42.703-33.852 59.775-89.421 59.775-89.421zm-279.144 345.476-11.244-27.454 62.542-80.774 35.917 29.929-25.704 76.334c-4.503 13.374-17.01 22.359-31.122 22.359-13.387 0-25.316-8.005-30.389-20.394zm94.839-135.202h21.643c7.759 0 15.353 2.016 22.068 5.666l-32.89 27.406-32.89-27.406c6.715-3.65 14.309-5.666 22.069-5.666zm-15.049 161.782c4.396-5.567 7.904-11.934 10.261-18.934l15.609-46.355 15.609 46.355c2.418 7.18 6.04 13.699 10.595 19.366-7.988 3.542-16.688 5.429-25.555 5.429-9.233-.001-18.274-2.037-26.519-5.861zm131.531-26.579c-5.074 12.388-17.002 20.393-30.389 20.393-14.111 0-26.618-8.985-31.121-22.359l-25.705-76.334 35.917-29.929 62.542 80.774zm70.806-198.572-38.309-42.01c-11.965-13.121-18.554-30.127-18.554-47.885h-30.115c0 25.282 9.382 49.494 26.416 68.176l49.947 54.772 11.325 62.946c2.721 15.129-.89 30.21-10.169 42.466-6.184 8.168-14.265 14.239-23.493 17.829l-72.357-93.449c-7.557-9.76-17.393-17.446-28.435-22.537v-49.558c0-3.142 2.029-4.613 3.239-5.209 1.211-.597 3.612-1.312 6.105.6l26.28 20.156 18.328-23.896-26.28-20.156c-10.933-8.385-25.399-9.807-37.755-3.712s-20.031 18.44-20.031 32.217v42.53c-.595-.014-1.19-.026-1.786-.026h-21.643c-.162 0-.324.006-.487.007v-42.511c0-13.777-7.676-26.122-20.031-32.217-12.356-6.094-26.823-4.673-37.755 3.712l-26.28 20.156 18.328 23.896 26.28-20.156c2.493-1.914 4.895-1.197 6.105-.6s3.239 2.067 3.239 5.209v48.978c-11.568 5.078-21.883 12.976-29.734 23.117l-72.519 93.658c-9.448-3.562-17.718-9.715-24.019-18.039-9.209-12.163-12.835-27.109-10.228-42.123l16.451-71.234 42.7-46.826c17.036-18.682 26.418-42.893 26.418-68.176h-30.115c0 17.758-6.59 34.763-18.555 47.885l-38.308 42.01c-32.346-27.862-37.798-52.53-41.531-59.619l65.837-66.022c7.434-7.454 18.286-10.106 28.319-6.921l51.205 16.23s65.542-22.578 144.518-1.325l4.261 1.147 50.565-16.052c10.037-3.187 20.885-.533 28.319 6.921l65.837 66.022c-3.737 7.089-11.552 31.096-41.533 59.619z"/><path d="m145.018 230.826h30.115v30.117h-30.115z"/><path d="m341.036 230.826h30.115v30.117h-30.115z"/></g></symbol>
<symbol id="i-sass" xmlns="http://www.w3.org/2000/svg" xmlns:xlink="http://www.w3.org/1999/xlink" x="0px" y="0px"
	 viewBox="0 0 512.007 512.007" style="enable-background:new 0 0 512.007 512.007;" xml:space="preserve">
<g transform="translate(0 -1)">
	<g>
		<g>
			<path d="M503.47,188.741h-93.867v-76.8c0-0.089-0.011-0.176-0.013-0.265c-0.004-0.111-0.009-0.222-0.017-0.333
				c-0.024-0.343-0.063-0.682-0.126-1.012c-0.004-0.022-0.006-0.044-0.01-0.066c-0.075-0.376-0.18-0.739-0.302-1.095
				c-0.022-0.065-0.047-0.128-0.07-0.192c-0.129-0.349-0.275-0.689-0.447-1.014c-0.005-0.009-0.008-0.018-0.013-0.027
				c-0.182-0.342-0.391-0.667-0.617-0.979c-0.039-0.054-0.08-0.108-0.121-0.161c-0.246-0.324-0.508-0.634-0.796-0.92L304.703,3.508
				c-0.263-0.263-0.548-0.501-0.843-0.728c-0.083-0.064-0.167-0.128-0.252-0.189c-0.285-0.203-0.58-0.395-0.89-0.562
				c-0.076-0.041-0.155-0.073-0.232-0.112c-0.247-0.124-0.501-0.236-0.761-0.336c-0.12-0.046-0.24-0.092-0.362-0.132
				c-0.294-0.098-0.593-0.183-0.899-0.249c-0.14-0.03-0.281-0.049-0.422-0.073c-0.228-0.037-0.458-0.068-0.692-0.086
				c-0.165-0.013-0.33-0.021-0.496-0.025c-0.062-0.001-0.122-0.009-0.184-0.009H8.537c-4.71,0-8.533,3.823-8.533,8.533v494.933
				c0,4.71,3.823,8.533,8.533,8.533H401.07c4.719,0,8.533-3.823,8.533-8.533v-93.867h93.867c4.719,0,8.533-3.823,8.533-8.533v-204.8
				C512.004,192.564,508.189,188.741,503.47,188.741z M307.204,30.14l73.267,73.267h-73.267V30.14z M392.537,495.941H17.07V18.074
				h273.067v93.867c0,4.71,3.823,8.533,8.533,8.533h93.867v68.267H51.204c-4.71,0-8.533,3.823-8.533,8.533v204.8
				c0,4.71,3.823,8.533,8.533,8.533h341.333V495.941z M494.937,393.541h-435.2V205.807h435.2V393.541z"/>
			<path d="M119.47,239.941c14.114,0,25.6,11.486,25.6,25.6c0,4.71,3.823,8.533,8.533,8.533c4.71,0,8.533-3.823,8.533-8.533
				c0-23.526-19.14-42.667-42.667-42.667s-42.667,19.14-42.667,42.667c0,23.526,19.14,42.667,42.667,42.667
				c14.114,0,25.6,11.486,25.6,25.6c0,14.114-11.486,25.6-25.6,25.6s-25.6-11.486-25.6-25.6c0-4.71-3.823-8.533-8.533-8.533
				c-4.71,0-8.533,3.823-8.533,8.533c0,23.526,19.14,42.667,42.667,42.667s42.667-19.14,42.667-42.667
				c0-23.526-19.14-42.667-42.667-42.667c-14.114,0-25.6-11.486-25.6-25.6C93.87,251.426,105.356,239.941,119.47,239.941z"/>
			<path d="M332.804,239.941c14.114,0,25.6,11.486,25.6,25.6c0,4.71,3.823,8.533,8.533,8.533s8.533-3.823,8.533-8.533
				c0-23.526-19.14-42.667-42.667-42.667c-23.526,0-42.667,19.14-42.667,42.667c0,23.526,19.14,42.667,42.667,42.667
				c14.114,0,25.6,11.486,25.6,25.6c0,14.114-11.486,25.6-25.6,25.6c-14.114,0-25.6-11.486-25.6-25.6
				c0-4.71-3.823-8.533-8.533-8.533s-8.533,3.823-8.533,8.533c0,23.526,19.14,42.667,42.667,42.667
				c23.526,0,42.667-19.14,42.667-42.667c0-23.526-19.14-42.667-42.667-42.667c-14.114,0-25.6-11.486-25.6-25.6
				C307.204,251.426,318.69,239.941,332.804,239.941z"/>
			<path d="M435.204,308.207c14.114,0,25.6,11.486,25.6,25.6c0,14.114-11.486,25.6-25.6,25.6s-25.6-11.486-25.6-25.6
				c0-4.71-3.814-8.533-8.533-8.533c-4.71,0-8.533,3.823-8.533,8.533c0,23.526,19.14,42.667,42.667,42.667
				c23.526,0,42.667-19.14,42.667-42.667c0-23.526-19.14-42.667-42.667-42.667c-14.114,0-25.6-11.486-25.6-25.6
				c0-14.114,11.486-25.6,25.6-25.6s25.6,11.486,25.6,25.6c0,4.71,3.814,8.533,8.533,8.533s8.533-3.823,8.533-8.533
				c0-23.526-19.14-42.667-42.667-42.667c-23.526,0-42.667,19.14-42.667,42.667C392.537,289.067,411.677,308.207,435.204,308.207z"
				/>
			<path d="M229.866,228.408c-1.289-3.405-4.582-5.692-8.235-5.53c-3.644,0.102-6.818,2.5-7.91,5.982l-42.667,136.533
				c-1.399,4.506,1.109,9.284,5.606,10.692c4.454,1.374,9.276-1.101,10.692-5.598l14.127-45.214h46.472l17.122,45.666
				c1.289,3.422,4.54,5.538,7.996,5.538c0.998,0,2.005-0.179,2.995-0.546c4.412-1.655,6.647-6.571,5.001-10.991L229.866,228.408z
				 M206.813,308.207l15.791-50.539l18.949,50.539H206.813z"/>
		</g>
	</g>
</g>
<g>
</g>
<g>
</g>
<g>
</g>
<g>
</g>
<g>
</g>
<g>
</g>
<g>
</g>
<g>
</g>
<g>
</g>
<g>
</g>
<g>
</g>
<g>
</g>
<g>
</g>
<g>
</g>
<g>
</g>
</symbol> 
<symbol id="i-gulp" xmlns="http://www.w3.org/2000/svg" viewBox="0 0 32 32"><path d="M 22.154297 1 C 22.113531 1.0015781 22.081797 1.0129531 22.060547 1.0332031 L 18.345703 5.4453125 L 17.587891 8.0507812 C 17.072891 8.0337813 16.541094 8.0273438 15.996094 8.0273438 C 12.135094 8.0273437 9 8.4363594 9 8.9433594 C 9 10.153359 22.990234 10.153359 22.990234 8.9433594 C 22.990234 8.5683594 21.315391 8.2515625 18.900391 8.1015625 L 19.5 5.9570312 L 22.974609 1.7773438 L 22.980469 1.7714844 C 23.058469 1.6904844 22.906203 1.447375 22.658203 1.234375 C 22.472203 1.073875 22.276594 0.99526563 22.154297 1 z M 17.302734 9.0761719 L 17.289062 9.1171875 C 17.283062 9.1221875 17.283203 9.1287656 17.283203 9.1347656 C 17.283203 9.2097656 17.586078 9.2714844 17.955078 9.2714844 C 18.324078 9.2714844 18.628906 9.2097656 18.628906 9.1347656 L 18.640625 9.0878906 C 18.737625 9.1228906 18.791016 9.1629844 18.791016 9.2089844 C 18.791016 9.3299844 18.416219 9.4288281 17.949219 9.4238281 C 17.495219 9.4238281 17.119141 9.3319375 17.119141 9.2109375 C 17.119141 9.1589375 17.193734 9.1111719 17.302734 9.0761719 z M 22.912109 9.4199219 C 21.061109 10.406922 10.949797 10.413594 9.0917969 9.4335938 L 9.9140625 16.666016 C 10.271062 15.513016 11.173938 13.956375 12.335938 13.484375 C 12.716938 13.328375 13.103797 13.329109 13.466797 13.537109 C 13.781797 13.710109 14.048125 14.072797 14.078125 14.216797 C 14.151125 14.591797 13.957641 14.740234 13.806641 14.740234 C 13.624641 14.740234 13.485531 14.476312 13.394531 14.320312 C 13.146531 13.899313 12.771094 13.881203 12.371094 14.158203 C 11.953094 14.446203 11.589938 14.930563 11.335938 15.351562 C 11.026938 15.858562 10.766375 16.417563 10.609375 16.976562 C 10.518375 17.299563 10.435219 17.817047 10.574219 18.123047 C 10.635219 18.250047 10.725094 18.330078 10.871094 18.330078 C 11.174094 18.330078 11.614172 17.950047 11.826172 17.748047 C 12.098172 17.489047 12.449031 17.085172 12.582031 16.826172 L 12.898438 15.933594 C 13.055438 15.541594 13.496094 15.610594 13.496094 15.933594 C 13.496094 16.521594 13.273578 16.717594 12.892578 17.933594 C 12.541578 19.057594 12.431641 19.421875 12.431641 19.421875 C 12.389641 19.582875 12.225781 19.853516 12.050781 19.853516 C 11.977781 19.853516 11.924531 19.829203 11.894531 19.783203 C 11.833531 19.702203 11.839703 19.479875 11.845703 19.421875 C 11.857703 19.237875 12.226109 18.14175 12.287109 17.96875 C 12.166109 18.09575 12.039391 18.223609 11.900391 18.349609 C 11.573391 18.643609 11.047609 19.029297 10.599609 19.029297 C 10.393609 19.029297 10.261766 18.976625 10.134766 18.890625 L 10.59375 23.478516 C 10.71475 23.766516 12.966641 24.464844 15.931641 24.464844 C 18.902641 24.464844 21.152578 23.761516 21.267578 23.478516 L 21.927734 18.027344 C 21.582734 18.327344 21.184188 18.696859 20.742188 18.880859 C 20.415187 19.013859 19.689453 19.098781 19.689453 18.550781 C 19.689453 18.250781 20.240547 17.6985 20.560547 17.3125 C 20.645547 17.2145 20.84375 16.972703 20.84375 16.845703 C 20.84375 16.678703 20.481719 16.717281 20.136719 16.988281 C 19.942719 17.144281 19.760375 17.352828 19.609375 17.548828 C 19.349375 17.894828 19.210703 18.193406 19.095703 18.441406 C 18.720703 19.259406 18.847922 18.936984 18.544922 19.708984 C 18.241922 20.475984 18.291469 20.388625 18.230469 20.515625 C 18.176469 20.625625 18.097281 20.718391 17.988281 20.775391 C 17.873281 20.833391 17.716141 20.826812 17.619141 20.757812 C 17.565141 20.722812 17.539062 20.647922 17.539062 20.544922 C 17.539062 20.492922 17.546594 20.440672 17.558594 20.388672 C 17.649594 20.036672 18.030797 19.346109 18.466797 18.412109 C 18.563797 18.199109 18.526672 18.262297 18.513672 18.279297 C 18.138672 18.625297 17.853578 18.792766 17.642578 18.884766 C 17.291578 19.034766 16.855625 19.034438 16.765625 18.648438 C 16.759625 18.625438 16.759906 18.601125 16.753906 18.578125 C 16.039906 19.108125 15.283922 19.252328 15.544922 18.111328 C 15.266922 18.584328 14.7815 18.970703 14.1875 18.970703 C 13.9395 18.970703 13.757969 18.890734 13.667969 18.677734 C 13.528969 18.360734 13.746312 17.817688 13.945312 17.304688 C 14.048312 17.045687 14.188953 16.734094 14.376953 16.371094 C 14.473953 16.175094 14.629937 16.059328 14.835938 16.111328 C 14.871937 16.123328 14.903594 16.135344 14.933594 16.152344 C 15.090594 16.256344 15.030172 16.410406 14.951172 16.566406 C 14.721172 16.998406 14.521672 17.315625 14.388672 17.765625 C 14.334672 17.955625 14.266516 18.285156 14.478516 18.285156 C 14.623516 18.285156 14.762484 18.238484 14.896484 18.146484 C 15.174484 17.950484 15.398359 17.657141 15.568359 17.369141 C 15.689359 17.162141 15.835203 16.891156 15.908203 16.660156 C 15.938203 16.562156 15.975578 16.469813 16.017578 16.382812 C 16.084578 16.238813 16.174031 16.089844 16.332031 16.089844 C 16.411031 16.089844 16.476391 16.118781 16.525391 16.175781 C 16.628391 16.302781 16.605781 16.433266 16.550781 16.572266 C 16.429781 16.895266 16.266813 17.184156 16.132812 17.535156 C 16.053812 17.737156 15.96875 17.995984 15.96875 18.208984 C 15.96875 18.404984 16.192859 18.358344 16.380859 18.277344 C 16.525859 18.214344 16.670969 18.117531 16.792969 18.019531 C 16.865969 17.737531 16.846625 17.799891 18.390625 14.087891 C 18.469625 13.897891 18.614766 13.816406 18.759766 13.816406 C 18.832766 13.816406 18.892125 13.840859 18.953125 13.880859 C 19.056125 13.955859 19.057625 14.115328 19.015625 14.236328 C 18.973625 14.346328 18.978187 14.311797 18.742188 14.841797 C 18.427187 15.538797 18.222359 16.041641 17.943359 16.681641 C 17.828359 16.946641 17.477969 17.770797 17.417969 17.966797 C 17.381969 18.093797 17.338516 18.300781 17.478516 18.300781 C 17.805516 18.300781 18.646953 17.545312 18.876953 17.320312 C 18.888953 17.303313 18.907641 17.297156 18.931641 17.285156 C 18.967641 17.175156 19.003203 17.07275 19.033203 16.96875 C 19.118203 16.74975 19.197469 16.494406 19.355469 16.316406 C 19.403469 16.258406 19.457578 16.224609 19.517578 16.224609 C 19.686578 16.224609 19.771484 16.293078 19.771484 16.455078 C 19.771484 16.518078 19.730078 16.7495 19.705078 16.8125 C 19.790078 16.7265 19.879563 16.640688 19.976562 16.554688 C 20.884563 15.753687 21.53125 16.162406 21.53125 16.566406 C 21.53125 16.992406 20.993266 17.585062 20.697266 17.914062 C 20.600266 18.024062 20.400531 18.225203 20.394531 18.283203 C 20.394531 18.358203 20.448344 18.388672 20.527344 18.388672 C 20.648344 18.388672 20.914719 18.186188 21.011719 18.117188 C 21.314719 17.892187 21.724625 17.546688 22.015625 17.304688 L 22.912109 9.4199219 z M 10.929688 24.03125 L 11.832031 25.496094 L 12.183594 30.072266 C 12.183594 30.585266 13.895953 31 16.001953 31 C 18.107953 31 19.820312 30.585266 19.820312 30.072266 L 20.099609 25.449219 L 20.951172 24.03125 C 18.554172 24.99425 13.423687 25.02825 10.929688 24.03125 z"/></symbol>
<symbol id="i-git" viewBox="0 0 512 512" xmlns="http://www.w3.org/2000/svg"><path d="m386 53c0 5.523438-4.476562 10-10 10s-10-4.476562-10-10 4.476562-10 10-10 10 4.476562 10 10zm0 0"/><path d="m256 106c-93.738281 0-170 76.261719-170 170 0 94.644531 76.878906 170 170 170 93.324219 0 170-75.488281 170-170 0-93.738281-76.261719-170-170-170zm-30.792969 316.820312c.507813-2.207031.78125-4.492187.792969-6.820312v-39.835938c-.023438-14.582031 5.058594-16.84375 10.875-25.726562 1.867188-2.851562 2.152344-6.457031.761719-9.570312-1.394531-3.109376-4.277344-5.296876-7.648438-5.796876-39.667969-5.921874-55.238281-26.371093-61.316406-42.480468-8.09375-21.460938-3.808594-48.222656 10.417969-65.09375 2.164062-2.542969 4.101562-7.113282 2.546875-11.6875-3.035157-9.167969-2.5625-23.8125-.671875-29.476563 8.617187 1.261719 16.667968 6.144531 25.839844 11.710938 5.308593 3.226562 9.082031 6.203125 15.503906 4.476562 11.222656-3.042969 22.558594-4.660156 33.691406-4.808593 11.136719.144531 22.472656 1.765624 33.710938 4.8125 6.382812 1.722656 10.28125-1.320313 15.484374-4.480469 9.175782-5.566407 17.226563-10.453125 25.84375-11.710938 1.890626 5.660157 2.363282 20.300781-.644531 29.394531-1.582031 4.652344.351563 9.226563 2.515625 11.769532 14.230469 16.867187 18.515625 43.632812 10.417969 65.09375-6.074219 16.109375-21.644531 36.558594-61.3125 42.476562-3.371094.503906-6.253906 2.691406-7.648437 5.800782-1.394532 3.113281-1.109376 6.71875.757812 9.570312 5.804688 8.863281 10.902344 11.125 10.878906 25.742188v39.875c.011719 2.304687.28125 4.574218.785156 6.765624-10.074218 2.101563-20.382812 3.179688-30.789062 3.179688s-20.71875-1.078125-30.792969-3.179688zm80.902344-5.402343c-.0625-.464844-.105469-.933594-.109375-1.417969v-39.804688c.019531-11.476562-2.503906-18.941406-5.628906-24.539062 30.347656-8.203125 51.976562-26.308594 61.667968-52.007812 10.238282-27.144532 5.59375-59.59375-11.449218-82.058594 3.105468-13.667969 3.015625-35.253906-4.425782-45.070313-3.328124-4.394531-7.976562-6.671875-13.117187-6.449219-15.636719.722657-27.6875 8.527344-40.8125 16.441407-12.011719-3.039063-24.144531-4.652344-36.113281-4.800781-.082032-.003907-.160156-.003907-.242188 0-11.972656.144531-24.113281 1.761718-36.113281 4.800781-13.023437-7.851563-25.109375-15.714844-40.816406-16.441407-5.117188-.234374-9.78125 2.054688-13.113281 6.449219-7.429688 9.800781-7.53125 31.335938-4.421876 45.0625-17.042968 22.464844-21.691406 54.921875-11.453124 82.066407 9.691406 25.699218 31.320312 43.804687 61.667968 52.003906-2.46875 4.421875-4.554687 10.015625-5.316406 17.816406-12.367188 4.324219-22.378906 1.472656-29.175781-9.980469-7.949219-13.371093-21.417969-24.15625-36.855469-22.824219-5.503906.476563-9.578125 5.324219-9.101562 10.824219.472656 5.503907 5.335937 9.585938 10.824218 9.105469 7.148438-.621094 14.199219 6.824219 17.9375 13.109375 10.6875 18.011719 28 24.441406 46.058594 20.578125v25.660156c-.003906.503906-.046875.992188-.113281 1.472656-59.199219-21.003906-99.886719-78.019531-99.886719-141.414062 0-82.710938 67.289062-150 150-150s150 67.289062 150 150c0 63.394531-40.6875 120.410156-99.890625 141.417969zm0 0"/><path d="m462 0h-412c-27.570312 0-50 22.429688-50 50v412c0 27.570312 22.429688 50 50 50h412c27.570312 0 50-22.429688 50-50v-412c0-27.570312-22.429688-50-50-50zm30 462c0 16.542969-13.457031 30-30 30h-412c-16.542969 0-30-13.457031-30-30v-412c0-16.542969 13.457031-30 30-30h412c16.542969 0 30 13.457031 30 30zm0 0"/><path d="m136 63h200c5.523438 0 10-4.476562 10-10s-4.476562-10-10-10h-200c-5.523438 0-10 4.476562-10 10s4.476562 10 10 10zm0 0"/></symbol>
<symbol id="i-react" xmlns="http://www.w3.org/2000/svg"  viewBox="0 0 50 50"><path d="M 34.554688 3.984375 C 33.775003 3.9581582 32.958884 4.0940926 32.140625 4.359375 C 30.504109 4.889941 28.789203 5.9238848 27.029297 7.3554688 C 26.339589 7.9165071 25.643623 8.5578288 24.945312 9.2382812 C 24.262398 8.5751039 23.580733 7.9490442 22.90625 7.4003906 C 21.147758 5.9699557 19.4375 4.9375672 17.804688 4.4082031 C 16.171878 3.8788386 14.547223 3.8624356 13.212891 4.6328125 C 11.878558 5.4031893 11.080619 6.8173558 10.722656 8.4960938 C 10.364693 10.174832 10.402173 12.173992 10.761719 14.412109 C 10.886606 15.189511 11.066671 16.005078 11.269531 16.835938 C 10.507095 17.067004 9.7666767 17.309955 9.0800781 17.578125 C 7.0079817 18.387438 5.2934468 19.355663 4.0449219 20.507812 C 2.7963969 21.659962 1.9902344 23.058304 1.9902344 24.59375 C 1.9902344 26.129196 2.7963969 27.525585 4.0449219 28.677734 C 5.2934468 29.829884 7.0079817 30.800062 9.0800781 31.609375 C 9.8142516 31.896126 10.609118 32.154326 11.429688 32.398438 C 11.134531 33.501278 10.895394 34.571467 10.732422 35.585938 C 10.372587 37.825853 10.334588 39.825265 10.693359 41.507812 C 11.052134 43.19036 11.850478 44.612534 13.191406 45.386719 C 14.532336 46.160905 16.164264 46.141894 17.800781 45.611328 C 19.437297 45.080762 21.15025 44.048772 22.910156 42.617188 C 23.593512 42.061316 24.284757 41.427206 24.976562 40.753906 C 25.671663 41.430886 26.366333 42.068604 27.052734 42.626953 C 28.811227 44.057387 30.523438 45.089776 32.15625 45.619141 C 33.789061 46.148505 35.411762 46.164908 36.746094 45.394531 C 38.080426 44.624154 38.878366 43.209988 39.236328 41.53125 C 39.59429 39.852512 39.554857 37.85335 39.195312 35.615234 C 39.031899 34.598012 38.792614 33.526227 38.496094 32.419922 C 39.343769 32.169866 40.163744 31.904721 40.919922 31.609375 C 42.992018 30.800062 44.706553 29.829884 45.955078 28.677734 C 47.203603 27.525585 48.009766 26.129196 48.009766 24.59375 C 48.009766 23.058304 47.203603 21.659963 45.955078 20.507812 C 44.706553 19.355663 42.992018 18.387438 40.919922 17.578125 C 40.22347 17.306107 39.471688 17.059992 38.697266 16.826172 C 38.901775 15.990221 39.083345 15.168805 39.208984 14.386719 C 39.568819 12.146804 39.606825 10.145439 39.248047 8.4628906 C 38.889279 6.7803434 38.088976 5.3601244 36.748047 4.5859375 C 36.077582 4.1988452 35.334372 4.0105918 34.554688 3.984375 z M 34.462891 6.0195312 C 34.952154 6.03291 35.369535 6.1493386 35.726562 6.3554688 C 36.440618 6.7677287 36.968419 7.5700924 37.25 8.890625 C 37.531581 10.211156 37.521848 11.99533 37.189453 14.064453 C 37.075647 14.772878 36.910402 15.52369 36.722656 16.292969 C 34.677708 15.800829 32.436969 15.435424 30.048828 15.220703 C 28.849094 13.558465 27.615953 12.046374 26.373047 10.703125 C 27.030182 10.061662 27.683063 9.4617259 28.320312 8.9433594 C 29.946026 7.6209332 31.485126 6.7210962 32.769531 6.3046875 C 33.411734 6.0964824 33.973627 6.0061525 34.462891 6.0195312 z M 15.486328 6.0253906 C 15.978419 6.0116533 16.541491 6.1017415 17.185547 6.3105469 C 18.473657 6.7281576 20.015451 7.6275969 21.642578 8.9511719 C 22.266889 9.4590141 22.905452 10.045872 23.548828 10.671875 C 22.296955 12.025781 21.055175 13.553705 19.847656 15.230469 C 17.468002 15.449155 15.235261 15.818024 13.199219 16.3125 C 13.012686 15.546898 12.84964 14.799095 12.736328 14.09375 C 12.403642 12.02283 12.39534 10.236451 12.677734 8.9121094 C 12.960128 7.5877677 13.492238 6.7813032 14.212891 6.3652344 C 14.573216 6.1572002 14.994237 6.0391279 15.486328 6.0253906 z M 24.976562 12.142578 C 25.791064 13.028975 26.606064 13.9993 27.414062 15.042969 C 26.620033 15.009861 25.816288 14.990234 25 14.990234 C 24.167457 14.990234 23.34841 15.010498 22.539062 15.044922 C 23.347352 14.000306 24.16175 13.029737 24.976562 12.142578 z M 25 17.009766 C 26.359894 17.009766 27.685348 17.065647 28.974609 17.160156 C 29.86173 18.434311 30.728648 19.786055 31.554688 21.216797 C 32.280504 22.473948 32.937328 23.729163 33.535156 24.96875 C 32.931017 26.224782 32.263184 27.496972 31.527344 28.771484 C 30.879609 29.893393 30.20319 30.958949 29.515625 31.986328 C 28.059313 32.10805 26.550303 32.175781 25 32.175781 C 23.412375 32.175781 21.869462 32.104031 20.380859 31.976562 C 19.704742 30.963955 19.039735 29.912587 18.402344 28.808594 C 17.668186 27.536996 17.003577 26.269079 16.400391 25.015625 C 17.006106 23.755092 17.673701 22.47818 18.412109 21.199219 C 19.233818 19.775977 20.098207 18.432055 20.980469 17.164062 C 22.283609 17.067424 23.62445 17.009766 25 17.009766 z M 31.550781 17.410156 C 33.198531 17.615819 34.745652 17.90154 36.185547 18.244141 C 35.758129 19.645287 35.231654 21.108808 34.59375 22.619141 C 34.179567 21.820719 33.750599 21.019585 33.287109 20.216797 C 32.725727 19.244455 32.142026 18.315962 31.550781 17.410156 z M 18.34375 17.425781 C 17.764654 18.315097 17.194836 19.224578 16.644531 20.177734 C 16.175094 20.990823 15.737221 21.802736 15.318359 22.611328 C 14.68596 21.110075 14.162654 19.654877 13.738281 18.261719 C 15.168002 17.918363 16.706766 17.633813 18.34375 17.425781 z M 38.164062 18.775391 C 38.872944 18.989877 39.557566 19.21371 40.185547 19.458984 C 42.0957 20.205046 43.60665 21.088493 44.585938 21.992188 C 45.565224 22.895882 45.990234 23.757696 45.990234 24.59375 C 45.990234 25.429804 45.565225 26.291619 44.585938 27.195312 C 43.60665 28.099007 42.0957 28.982454 40.185547 29.728516 C 39.487698 30.001079 38.72096 30.248243 37.923828 30.482422 C 37.355199 28.723643 36.629408 26.888772 35.765625 25.015625 C 36.758785 22.865083 37.561088 20.768289 38.164062 18.775391 z M 11.802734 18.785156 C 12.398795 20.758095 13.190852 22.834207 14.169922 24.962891 C 13.30047 26.846955 12.571087 28.692254 12 30.460938 C 11.23096 30.232919 10.490212 29.992451 9.8144531 29.728516 C 7.9042995 28.982454 6.39335 28.099007 5.4140625 27.195312 C 4.434775 26.291618 4.0097656 25.429804 4.0097656 24.59375 C 4.0097656 23.757696 4.434775 22.895882 5.4140625 21.992188 C 6.39335 21.088493 7.9042995 20.205046 9.8144531 19.458984 C 10.432774 19.217483 11.105915 18.996837 11.802734 18.785156 z M 25 20 C 22.250421 20 20 22.250421 20 25 C 20 27.749579 22.250421 30 25 30 C 27.749579 30 30 27.749579 30 25 C 30 22.250421 27.749579 20 25 20 z M 25 22 C 26.668699 22 28 23.331301 28 25 C 28 26.668699 26.668699 28 25 28 C 23.331301 28 22 26.668699 22 25 C 22 23.331301 23.331301 22 25 22 z M 34.619141 27.363281 C 35.143596 28.604493 35.599462 29.819048 35.982422 30.990234 C 34.779808 31.269089 33.499292 31.504052 32.152344 31.689453 C 32.540071 31.070779 32.922982 30.44057 33.296875 29.792969 C 33.765554 28.981192 34.200846 28.17048 34.619141 27.363281 z M 15.341797 27.365234 C 15.762305 28.177437 16.200272 28.991753 16.671875 29.808594 C 17.041066 30.448052 17.418053 31.072363 17.800781 31.683594 C 16.457817 31.497372 15.181231 31.261605 13.982422 30.982422 C 14.363652 29.81481 14.819744 28.602796 15.341797 27.365234 z M 13.40625 32.923828 C 15.216074 33.352568 17.177716 33.681912 19.257812 33.896484 C 20.646655 35.905245 22.092677 37.70929 23.548828 39.287109 C 22.897813 39.921859 22.252566 40.517583 21.621094 41.03125 C 19.99538 42.353677 18.454326 43.251559 17.169922 43.667969 C 15.885516 44.084378 14.926946 44.029446 14.212891 43.617188 C 13.498835 43.204927 12.972987 42.402563 12.691406 41.082031 C 12.409825 39.761499 12.417606 37.979279 12.75 35.910156 C 12.900793 34.971492 13.12615 33.966374 13.40625 32.923828 z M 36.560547 32.931641 C 36.842786 33.979991 37.069087 34.989811 37.220703 35.933594 C 37.553389 38.004513 37.56169 39.788939 37.279297 41.113281 C 36.996903 42.437623 36.466746 43.24604 35.746094 43.662109 C 35.025442 44.078178 34.059594 44.13441 32.771484 43.716797 C 31.483374 43.299186 29.941578 42.397794 28.314453 41.074219 C 27.678439 40.556858 27.028726 39.958258 26.373047 39.318359 C 27.838664 37.73459 29.295467 35.920758 30.693359 33.900391 C 32.778701 33.687251 34.745791 33.359875 36.560547 32.931641 z M 21.867188 34.101562 C 22.893951 34.157518 23.934244 34.195312 25 34.195312 C 26.030504 34.195312 27.037063 34.159787 28.03125 34.107422 C 27.014961 35.478593 25.979034 36.725149 24.947266 37.847656 C 23.916125 36.722751 22.882145 35.473968 21.867188 34.101562 z"/></symbol>
<symbol id="i-redux" xmlns="http://www.w3.org/2000/svg"  viewBox="0 0 50 50"><path d="M 24 2 C 16.832 2 11 10.292328 11 20.486328 C 11 25.581015 12.484998 30.154506 14.841797 33.492188 C 14.278671 34.225786 14 35.114721 14 36 C 14 36.972222 14.318681 37.957881 15.001953 38.726562 C 15.685226 39.495244 16.75 40 18 40 C 19.25 40 20.314774 39.495244 20.998047 38.726562 C 21.681319 37.957881 22 36.972222 22 36 C 22 35.027778 21.681319 34.042119 20.998047 33.273438 C 20.314774 32.504756 19.25 32 18 32 C 17.417923 32 16.88232 32.117915 16.400391 32.3125 C 14.317709 29.317793 13 25.144037 13 20.486328 C 13 11.395328 17.935 4 24 4 C 29.419 4 33.923219 9.9093906 34.824219 17.650391 C 35.531219 17.919391 36.232734 18.222641 36.927734 18.556641 C 36.246734 9.2666406 30.71 2 24 2 z M 22 15 C 20.75 15 19.685226 15.504756 19.001953 16.273438 C 18.318681 17.042119 18 18.027778 18 19 C 18 19.972222 18.318681 20.957881 19.001953 21.726562 C 19.685226 22.495244 20.75 23 22 23 C 23.25 23 24.314774 22.495244 24.998047 21.726562 C 25.425092 21.246137 25.694239 20.67767 25.847656 20.083984 C 29.425245 19.930128 33.445887 20.987107 37.142578 23.203125 C 45.036578 27.935125 49.012859 36.186703 46.005859 41.595703 C 44.931859 43.526703 43.056938 44.897594 40.585938 45.558594 C 37.123937 46.486594 32.8715 45.916078 28.8125 44.080078 C 28.2265 44.551078 27.60675 44.996734 26.96875 45.427734 C 30.29375 47.106734 33.8125 47.996094 37.0625 47.996094 C 38.4735 47.996094 39.833516 47.830234 41.103516 47.490234 C 44.110516 46.685234 46.410906 44.982406 47.753906 42.566406 C 51.277906 36.224406 46.978922 26.769281 38.169922 21.488281 C 34.19387 19.103202 29.825568 17.936523 25.886719 18.064453 C 25.744166 17.416386 25.4608 16.794034 24.998047 16.273438 C 24.314774 15.504756 23.25 15 22 15 z M 22 17 C 22.749999 17 23.185226 17.245244 23.501953 17.601562 C 23.81868 17.957881 24 18.472222 24 19 C 24 19.527778 23.81868 20.042119 23.501953 20.398438 C 23.185226 20.754756 22.749999 21 22 21 C 21.250001 21 20.814774 20.754756 20.498047 20.398438 C 20.18132 20.042119 20 19.527778 20 19 C 20 18.472222 20.18132 17.957881 20.498047 17.601562 C 20.814774 17.245244 21.250001 17 22 17 z M 9.1621094 23.332031 C 2.1981094 28.772031 -0.89795313 36.906406 2.2480469 42.566406 C 3.5910469 44.982406 5.8914375 46.683281 8.8984375 47.488281 C 10.169438 47.828281 11.528453 47.996094 12.939453 47.996094 C 16.739453 47.996094 20.911031 46.787719 24.707031 44.511719 C 29.262758 41.780488 32.543671 37.933128 34.212891 33.978516 C 35.367764 33.923167 36.355158 33.449812 36.998047 32.726562 C 37.681319 31.957881 38 30.972222 38 30 C 38 29.027778 37.681319 28.042118 36.998047 27.273438 C 36.314774 26.504756 35.25 26 34 26 C 32.75 26 31.685226 26.504756 31.001953 27.273438 C 30.318681 28.042119 30 29.027778 30 30 C 30 30.972222 30.318681 31.957882 31.001953 32.726562 C 31.334027 33.100145 31.760237 33.407648 32.25 33.628906 C 30.681548 37.037695 27.715244 40.376565 23.677734 42.796875 C 18.927734 45.645875 13.596062 46.678594 9.4140625 45.558594 C 6.9420625 44.896594 5.0690938 43.526703 3.9960938 41.595703 C 1.4540938 37.022703 3.9149531 30.427766 9.5019531 25.634766 C 9.3569531 24.883766 9.2441094 24.114031 9.1621094 23.332031 z M 34 28 C 34.749999 28 35.185226 28.245244 35.501953 28.601562 C 35.81868 28.957881 36 29.472222 36 30 C 36 30.527778 35.81868 31.042118 35.501953 31.398438 C 35.185226 31.754756 34.749999 32 34 32 C 33.250001 32 32.814774 31.754756 32.498047 31.398438 C 32.18132 31.042119 32 30.527778 32 30 C 32 29.472222 32.18132 28.957882 32.498047 28.601562 C 32.814774 28.245244 33.250001 28 34 28 z M 18 34 C 18.749999 34 19.185226 34.245244 19.501953 34.601562 C 19.81868 34.957881 20 35.472222 20 36 C 20 36.527778 19.81868 37.042119 19.501953 37.398438 C 19.185226 37.754756 18.749999 38 18 38 C 17.250001 38 16.814774 37.754756 16.498047 37.398438 C 16.18132 37.042119 16 36.527778 16 36 C 16 35.472222 16.18132 34.957881 16.498047 34.601562 C 16.814774 34.245244 17.250001 34 18 34 z"/></symbol>
<symbol id="i-js" xmlns="http://www.w3.org/2000/svg"  viewBox="0 0 64 64"><path d="M 12.576172 6 C 8.9635789 6 6 8.9635789 6 12.576172 L 6 51.423828 C 6 55.036421 8.9635789 58 12.576172 58 L 51.423828 58 C 55.036204 58 58 55.037335 58 51.425781 L 58 12.576172 C 58 8.9637963 55.036204 6 51.423828 6 L 12.576172 6 z M 12.576172 8 L 51.423828 8 C 53.945453 8 56 10.054547 56 12.576172 L 56 51.425781 C 56 53.946228 53.945453 56 51.423828 56 L 12.576172 56 C 10.054765 56 8 53.945235 8 51.423828 L 8 12.576172 C 8 10.054765 10.054765 8 12.576172 8 z M 12 12 C 11.448 12 11 12.448 11 13 L 11 15 C 11 15.552 11.448 16 12 16 C 12.552 16 13 15.552 13 15 L 13 13 C 13 12.448 12.552 12 12 12 z M 17 12 C 16.448 12 16 12.448 16 13 L 16 15 C 16 15.552 16.448 16 17 16 C 17.552 16 18 15.552 18 15 L 18 13 C 18 12.448 17.552 12 17 12 z M 22 12 C 21.448 12 21 12.448 21 13 L 21 15 C 21 15.552 21.448 16 22 16 C 22.552 16 23 15.552 23 15 L 23 13 C 23 12.448 22.552 12 22 12 z M 27 12 C 26.448 12 26 12.448 26 13 L 26 15 C 26 15.552 26.448 16 27 16 C 27.552 16 28 15.552 28 15 L 28 13 C 28 12.448 27.552 12 27 12 z M 32 12 C 31.448 12 31 12.448 31 13 L 31 15 C 31 15.552 31.448 16 32 16 C 32.552 16 33 15.552 33 15 L 33 13 C 33 12.448 32.552 12 32 12 z M 37 12 C 36.448 12 36 12.448 36 13 L 36 15 C 36 15.552 36.448 16 37 16 C 37.552 16 38 15.552 38 15 L 38 13 C 38 12.448 37.552 12 37 12 z M 42 12 C 41.448 12 41 12.448 41 13 L 41 15 C 41 15.552 41.448 16 42 16 C 42.552 16 43 15.552 43 15 L 43 13 C 43 12.448 42.552 12 42 12 z M 47 12 C 46.448 12 46 12.448 46 13 L 46 15 C 46 15.552 46.448 16 47 16 C 47.552 16 48 15.552 48 15 L 48 13 C 48 12.448 47.552 12 47 12 z M 52 12 C 51.448 12 51 12.448 51 13 L 51 15 C 51 15.552 51.448 16 52 16 C 52.552 16 53 15.552 53 15 L 53 13 C 53 12.448 52.552 12 52 12 z M 29.332031 30.117188 A 1.0001 1.0001 0 0 0 28.332031 31.117188 L 28.332031 45.599609 C 28.332031 46.583354 28.136686 46.99404 27.996094 47.142578 C 27.855501 47.291116 27.611983 47.392578 27 47.392578 C 25.862422 47.392578 25.136008 46.756569 24.535156 45.705078 A 1.0001 1.0001 0 0 0 23.154297 45.341797 L 19.486328 47.535156 A 1.0001 1.0001 0 0 0 19.097656 48.824219 C 20.313848 51.366541 23.225258 54 27.273438 54 C 29.444454 54 31.401529 53.422848 32.814453 52.109375 C 34.227377 50.795902 35 48.800797 35 46.300781 L 35 31.117188 A 1.0001 1.0001 0 0 0 34 30.117188 L 29.332031 30.117188 z M 45.626953 30.117188 C 41.354022 30.117188 38.333984 33.131267 38.333984 36.923828 C 38.333984 38.904389 38.942484 40.511689 39.996094 41.724609 C 41.049704 42.93753 42.479862 43.756743 44.095703 44.460938 L 45.167969 44.931641 C 46.128502 45.361332 46.788239 45.704822 47.103516 45.984375 C 47.420042 46.265036 47.494141 46.39181 47.494141 46.931641 C 47.494141 47.312893 47.391268 47.527763 47.160156 47.722656 C 46.929045 47.91755 46.498885 48.099609 45.779297 48.099609 C 44.95151 48.099609 44.461231 47.856595 43.974609 47.423828 C 43.487988 46.991061 43.04841 46.328896 42.597656 45.576172 A 1.0001 1.0001 0 0 0 41.175781 45.263672 L 37.796875 47.566406 A 1.0001 1.0001 0 0 0 37.464844 48.835938 C 38.842202 51.620145 41.546086 54 45.880859 54 C 48.09844 54 50.109563 53.415015 51.601562 52.197266 C 53.093564 50.979516 53.999177 49.110242 53.998047 46.876953 C 53.99762 44.855279 53.380573 43.217807 52.25 41.976562 C 51.119378 40.735264 49.563872 39.880766 47.6875 39.058594 L 47.685547 39.058594 L 46.615234 38.589844 L 46.613281 38.587891 C 45.718124 38.191104 45.139947 37.867981 44.878906 37.625 C 44.617516 37.381694 44.568359 37.293769 44.568359 36.835938 C 44.568359 36.268374 44.798618 35.951172 45.625 35.951172 C 46.09891 35.951172 46.368938 36.034562 46.634766 36.214844 C 46.900593 36.395123 47.191654 36.721404 47.513672 37.3125 A 1.0001 1.0001 0 0 0 48.939453 37.669922 L 52.285156 35.472656 A 1.0001 1.0001 0 0 0 52.611328 34.150391 C 51.058008 31.354414 48.596142 30.117187 45.626953 30.117188 z M 30.332031 32.117188 L 33 32.117188 L 33 46.300781 C 33 48.404765 32.405701 49.759004 31.453125 50.644531 C 30.500549 51.530058 29.094421 52 27.273438 52 C 24.513233 52 22.596423 50.334907 21.501953 48.660156 L 23.488281 47.472656 C 24.333123 48.516351 25.445083 49.392578 27 49.392578 C 27.869017 49.392578 28.791608 49.21029 29.447266 48.517578 C 30.102923 47.824866 30.332031 46.838865 30.332031 45.599609 L 30.332031 32.117188 z M 45.626953 32.117188 C 47.756355 32.117188 49.078212 32.849947 50.230469 34.429688 L 48.568359 35.523438 C 48.305885 35.19343 48.090887 34.785803 47.755859 34.558594 C 47.131437 34.135123 46.38609 33.951172 45.625 33.951172 C 43.933382 33.951172 42.568359 35.271501 42.568359 36.835938 C 42.568359 37.697105 42.918969 38.53265 43.517578 39.089844 C 44.116188 39.647038 44.859851 39.998485 45.806641 40.417969 A 1.0001 1.0001 0 0 0 45.808594 40.419922 L 46.882812 40.890625 C 48.657679 41.668222 49.958949 42.432144 50.771484 43.324219 C 51.58402 44.216294 51.998047 45.230549 51.998047 46.878906 C 51.998917 48.599618 51.38514 49.791734 50.337891 50.646484 C 49.290594 51.501188 47.744279 52 45.880859 52 C 42.647837 52 40.880567 50.601247 39.714844 48.679688 L 41.523438 47.447266 C 41.862778 47.955024 42.154553 48.480479 42.646484 48.917969 C 43.420363 49.606202 44.488084 50.099609 45.779297 50.099609 C 46.839709 50.099609 47.76783 49.82656 48.449219 49.251953 C 49.130607 48.677347 49.494141 47.808388 49.494141 46.931641 C 49.494141 45.964471 49.086161 45.070371 48.429688 44.488281 C 47.773212 43.906192 46.969797 43.545478 45.976562 43.101562 A 1.0001 1.0001 0 0 0 45.970703 43.099609 L 44.896484 42.628906 A 1.0001 1.0001 0 0 0 44.894531 42.626953 C 43.410372 41.980147 42.259703 41.277689 41.507812 40.412109 C 40.755924 39.54653 40.333984 38.520268 40.333984 36.923828 C 40.333984 34.12439 42.225884 32.117187 45.626953 32.117188 z"/></symbol></svg>
